<svg xmlns="http://www.w3.org/2000/svg" viewBox="0 0 330 330">
  <title>declarative-icon</title>
  <circle cx="165" cy="165" r="165" style="fill: #6ecde2"/>
  <g>
    <path d="M380,207.46c0-39.25-45.91-71.08-102.55-71.08S174.93,168.2,174.93,207.46s45.91,71.08,102.55,71.08a141.94,141.94,0,0,0,40.81-5.86l33.42,23.67-3-37.78C368,245.65,380,227.53,380,207.46Z" transform="translate(-109.56 -45.67)" style="fill: #f2852f"/>
    <path d="M372.63,195.95c0-39.25-45.91-71.08-102.55-71.08s-102.55,31.82-102.55,71.08S213.44,267,270.08,267a141.94,141.94,0,0,0,40.81-5.86l33.42,23.67-3-37.78C360.62,234.14,372.63,216,372.63,195.95Z" transform="translate(-109.56 -45.67)" style="fill: #fff"/>
  </g>
  <g>
    <path d="M243.88,176q0,0.71-.16,1.67l-1.81,15.26L240,209.21h-1l-0.76-8.86q-0.32-3.78-1.77-14.45-1.29-9.3-1.29-11.23a10.82,10.82,0,0,1,1-4.59,3.59,3.59,0,0,1,3.58-2.09,3.73,3.73,0,0,1,3.7,2.86,11.31,11.31,0,0,1,.52,3.7Q243.92,175.27,243.88,176Zm-7.44,47.4a4,4,0,0,1-1.3-3.1,4.36,4.36,0,0,1,1.29-3.14,4.25,4.25,0,0,1,3.18-1.33,4,4,0,0,1,3.08,1.35,4.49,4.49,0,0,1,1.23,3.12,4.1,4.1,0,0,1-1.3,3,4.39,4.39,0,0,1-3.19,1.27A4.26,4.26,0,0,1,236.44,223.38Z" transform="translate(-109.56 -45.67)" style="fill: #515250"/>
    <path d="M271.34,176q0,0.71-.16,1.67l-1.81,15.26-1.89,16.3h-1l-0.76-8.86q-0.32-3.78-1.77-14.45-1.29-9.3-1.29-11.23a10.82,10.82,0,0,1,1-4.59,3.59,3.59,0,0,1,3.58-2.09,3.73,3.73,0,0,1,3.7,2.86,11.31,11.31,0,0,1,.52,3.7Q271.38,175.27,271.34,176Zm-7.44,47.4a4,4,0,0,1-1.3-3.1,4.36,4.36,0,0,1,1.29-3.14,4.25,4.25,0,0,1,3.18-1.33,4,4,0,0,1,3.08,1.35,4.49,4.49,0,0,1,1.23,3.12,4.1,4.1,0,0,1-1.3,3,4.39,4.39,0,0,1-3.19,1.27A4.26,4.26,0,0,1,263.9,223.38Z" transform="translate(-109.56 -45.67)" style="fill: #515250"/>
    <path d="M298.79,176q0,0.71-.16,1.67l-1.81,15.26-1.89,16.3h-1l-0.76-8.86q-0.32-3.78-1.77-14.45-1.29-9.3-1.29-11.23a10.82,10.82,0,0,1,1-4.59,3.59,3.59,0,0,1,3.58-2.09,3.73,3.73,0,0,1,3.7,2.86,11.31,11.31,0,0,1,.52,3.7Q298.83,175.27,298.79,176Zm-7.44,47.4a4,4,0,0,1-1.3-3.1,4.36,4.36,0,0,1,1.29-3.14,4.25,4.25,0,0,1,3.18-1.33,4,4,0,0,1,3.08,1.35,4.49,4.49,0,0,1,1.23,3.12,4.1,4.1,0,0,1-1.3,3,4.39,4.39,0,0,1-3.19,1.27A4.26,4.26,0,0,1,291.36,223.38Z" transform="translate(-109.56 -45.67)" style="fill: #515250"/>
  </g>
</svg>
