<svg xmlns="http://www.w3.org/2000/svg" viewBox="0 0 711.63 711.62">
  <title>functional-icon</title>
  <circle cx="355.81" cy="355.81" r="355.81" style="fill: #F38630"/>
  <path d="M-352.14,419.51h11.83q0,51.93-16.93,75.59t-42.23,23.66q-20.71,0-39.77-15.61t-34.18-83.64L-501.68,292l-97.94,222.17h-62.12l140.66-303q-11.18-58.83-26.95-87.09t-39.11-28.26q-18.73,0-32.7,14.3t-15.61,44.2h-11.83q1-48.31,19.39-77.4t46-29.09q17.75,0,33.69,14.63t27.61,50q11.66,35.33,36.32,146.42L-460.93,363q14.13,64.75,29.74,86.6t37.3,21.86Q-357.08,471.44-352.14,419.51Z" transform="translate(871.81 69.06)" style="fill: #fff"/>
</svg>
