<svg xmlns="http://www.w3.org/2000/svg" viewBox="0 0 761.57 993.57">
  <title>reactive-icon</title>
  <g>
    <path d="M219.78-995C295.1-867.42,278-700.34,168.32-590.71,89.76-512.14-18.32-481.07-120.23-497.5" transform="translate(447.78 1322.81)" style="fill: none;stroke: #69d2e7;stroke-miterlimit: 10;stroke-width: 96px"/>
    <path d="M-106.18-495.57c22.71,45.74,16.24,118.92,1.79,166.33-25.71-78.84-68.19-154.35-131.59-210C-152.28-543.95-74.35-582.64-4.2-627-25.16-578.05-58-521.15-106.18-495.57Z" transform="translate(447.78 1322.81)" style="fill: #69d2e7"/>
  </g>
  <g>
    <path d="M-353.71-656.93c-75.39-127.62-58.25-294.76,51.4-404.41,78.57-78.57,186.65-109.64,288.56-93.21" transform="translate(447.78 1322.81)" style="fill: none;stroke: #fa6900;stroke-miterlimit: 10;stroke-width: 96px"/>
    <path d="M-27.8-1156.48C-50.5-1202.22-44-1275.4-29.58-1322.81-3.87-1244,38.61-1168.46,102-1112.8c-83.71,4.7-161.63,43.39-231.79,87.73C-108.82-1074-76-1130.9-27.8-1156.48Z" transform="translate(447.78 1322.81)" style="fill: #fa6900"/>
  </g>
</svg>
