<?xml version="1.0" encoding="utf-8"?>
<!-- Generator: Adobe Illustrator 16.0.4, SVG Export Plug-In . SVG Version: 6.00 Build 0)  -->
<!DOCTYPE svg PUBLIC "-//W3C//DTD SVG 1.1//EN" "http://www.w3.org/Graphics/SVG/1.1/DTD/svg11.dtd">
<svg version="1.1" xmlns="http://www.w3.org/2000/svg" xmlns:xlink="http://www.w3.org/1999/xlink" x="0px" y="0px" width="358.5px"
	 height="245px" viewBox="0 0 358.5 245" enable-background="new 0 0 358.5 245" xml:space="preserve">
<g id="Layer_1">
	<g id="Layer_4">
		
			<line fill="none" stroke="#A7A9AC" stroke-width="0.5" stroke-miterlimit="10" stroke-dasharray="1" x1="13.5" y1="69" x2="346" y2="69"/>
		
			<line fill="none" stroke="#A7A9AC" stroke-width="0.5" stroke-miterlimit="10" stroke-dasharray="1" x1="13.5" y1="178.173" x2="346" y2="178.173"/>
	</g>
	<g>
		<line fill="none" x1="183.333" y1="53.5" x2="183.333" y2="86"/>
		<g>
			<line fill="none" stroke="#1C75BC" stroke-miterlimit="10" x1="183.333" y1="53.5" x2="183.333" y2="82.68"/>
			<g>
				<path fill="#1C75BC" d="M183.333,86c-0.58-1.562-1.568-3.5-2.616-4.701l2.616,0.946l2.614-0.946
					C184.901,82.5,183.912,84.438,183.333,86z"/>
			</g>
		</g>
	</g>
	<g>
		<line fill="none" x1="271.25" y1="52.23" x2="271.25" y2="138.333"/>
		<g>
			<line fill="none" stroke="#1C75BC" stroke-miterlimit="10" x1="271.25" y1="52.23" x2="271.25" y2="135.014"/>
			<g>
				<path fill="#1C75BC" d="M271.25,138.333c-0.58-1.562-1.568-3.5-2.616-4.701l2.616,0.946l2.614-0.946
					C272.818,134.833,271.829,136.771,271.25,138.333z"/>
			</g>
		</g>
	</g>
	<g>
		<line fill="none" x1="196.5" y1="111.345" x2="213.25" y2="140"/>
		<g>
			<line fill="none" stroke="#1C75BC" stroke-miterlimit="10" x1="196.5" y1="111.345" x2="211.575" y2="137.134"/>
			<g>
				<path fill="#1C75BC" d="M213.25,140c-1.289-1.057-3.12-2.23-4.631-2.738l2.735-0.503l1.78-2.137
					C212.837,136.188,212.961,138.359,213.25,140z"/>
			</g>
		</g>
	</g>
	<g>
		<line fill="none" x1="250.167" y1="163.345" x2="250.167" y2="189"/>
		<g>
			<line fill="none" stroke="#BE1E2D" stroke-miterlimit="10" x1="250.167" y1="163.345" x2="250.167" y2="185.682"/>
			<g>
				<path fill="#BE1E2D" d="M250.167,189c-0.58-1.562-1.568-3.5-2.616-4.701l2.616,0.946l2.615-0.946
					C251.735,185.5,250.746,187.438,250.167,189z"/>
			</g>
		</g>
	</g>
	<path fill="#FFFFFF" stroke="#BE1E2D" stroke-width="2" stroke-miterlimit="10" d="M334.334,216.128
		c0,8.481-6.877,15.358-15.359,15.358H180.36c-8.482,0-15.359-6.877-15.359-15.358v-10.31c0-8.484,6.877-15.361,15.359-15.361
		h138.615c8.482,0,15.359,6.877,15.359,15.361V216.128L334.334,216.128z"/>
	<path fill="#FFFFFF" stroke="#1C75BC" stroke-miterlimit="10" d="M292.299,152.345c0,6.628-5.373,12-12,12h-60.264
		c-6.627,0-12-5.372-12-12V151c0-6.627,5.373-12,12-12h60.264c6.627,0,12,5.373,12,12V152.345z"/>
	<path fill="#FFFFFF" stroke="#1C75BC" stroke-miterlimit="10" d="M205.299,99.345c0,6.627-5.373,12-12,12h-22.264
		c-6.627,0-12-5.373-12-12V98c0-6.627,5.373-12,12-12h22.264c6.627,0,12,5.373,12,12V99.345L205.299,99.345z"/>
	<path fill="#FFFFFF" stroke="#000000" stroke-width="3" stroke-miterlimit="10" d="M201.965,40.23c0,6.627-5.373,12-12,12h-13.264
		c-6.627,0-12-5.373-12-12v-1.346c0-6.627,5.373-12,12-12h13.264c6.627,0,12,5.373,12,12V40.23z"/>
	<path fill="#FFFFFF" stroke="#000000" stroke-width="3" stroke-miterlimit="10" d="M294.459,40.23c0,6.627-5.373,12-12.001,12
		h-25.265c-6.627,0-12-5.373-12-12v-1.346c0-6.627,5.373-12,12-12h25.265c6.628,0,12.001,5.373,12.001,12V40.23z"/>
	<g enable-background="new    ">
		<path d="M181.647,42.477v-3.754h-0.721v-0.595h0.721v-0.333c0-0.891,0.486-1.413,1.26-1.413c0.342,0,0.648,0.081,0.918,0.333
			l-0.279,0.441c-0.144-0.126-0.314-0.217-0.539-0.217c-0.441,0-0.685,0.307-0.685,0.855v0.333h0.882v0.595h-0.882v3.754H181.647z"
			/>
		<path d="M184.004,42.477v-4.349h0.676v0.702c0.351-0.459,0.854-0.792,1.449-0.792v0.693c-0.082-0.018-0.162-0.027-0.271-0.027
			c-0.414,0-0.981,0.343-1.179,0.693v3.079H184.004z"/>
	</g>
	<g enable-background="new    ">
		<path d="M255.248,42.477v-6.005h3.934v0.666h-3.188v1.936h3.125v0.667h-3.125v2.07h3.188v0.666H255.248z M257.211,35.968h-0.514
			l1.332-1.297h0.702L257.211,35.968z"/>
		<path d="M260.477,41.567v-2.845h-0.721v-0.595h0.721v-1.188h0.676v1.188h0.882v0.595h-0.882v2.7c0,0.324,0.144,0.559,0.441,0.559
			c0.188,0,0.369-0.081,0.459-0.18l0.197,0.504c-0.171,0.162-0.414,0.279-0.811,0.279C260.801,42.585,260.477,42.216,260.477,41.567
			z"/>
		<path d="M262.87,37.057c0-0.252,0.207-0.459,0.45-0.459c0.252,0,0.459,0.207,0.459,0.459s-0.207,0.45-0.459,0.45
			C263.077,37.507,262.87,37.309,262.87,37.057z M262.988,42.477v-4.349h0.675v4.349H262.988z"/>
		<path d="M264.76,40.298c0-1.261,0.9-2.277,2.143-2.277c1.314,0,2.089,1.026,2.089,2.331v0.172h-3.521
			c0.055,0.818,0.631,1.503,1.566,1.503c0.496,0,1-0.198,1.342-0.549l0.324,0.44c-0.432,0.433-1.018,0.667-1.729,0.667
			C265.688,42.585,264.76,41.657,264.76,40.298z M266.894,38.578c-0.927,0-1.386,0.783-1.423,1.449h2.854
			C268.317,39.38,267.884,38.578,266.894,38.578z"/>
		<path d="M273.014,42.477v-2.845c0-0.766-0.387-1.009-0.973-1.009c-0.531,0-1.035,0.324-1.287,0.676v3.178h-0.675v-4.349h0.675
			v0.631c0.307-0.36,0.9-0.738,1.549-0.738c0.909,0,1.387,0.459,1.387,1.404v3.052H273.014z"/>
		<path d="M277.973,42.477v-2.845c0-0.766-0.387-1.009-0.973-1.009c-0.531,0-1.035,0.324-1.287,0.676v3.178h-0.675v-4.349h0.675
			v0.631c0.307-0.36,0.9-0.738,1.549-0.738c0.909,0,1.387,0.459,1.387,1.404v3.052H277.973z"/>
		<path d="M279.745,40.298c0-1.261,0.899-2.277,2.143-2.277c1.314,0,2.089,1.026,2.089,2.331v0.172h-3.521
			c0.054,0.818,0.63,1.503,1.566,1.503c0.495,0,0.999-0.198,1.341-0.549l0.324,0.44c-0.432,0.433-1.017,0.667-1.729,0.667
			C280.672,42.585,279.745,41.657,279.745,40.298z M281.879,38.578c-0.928,0-1.387,0.783-1.423,1.449h2.854
			C283.301,39.38,282.869,38.578,281.879,38.578z"/>
	</g>
	<g enable-background="new    ">
		<path d="M167.702,101.333v-6.005h2.674c1.044,0,1.684,0.63,1.684,1.53c0,0.757-0.504,1.261-1.053,1.378
			c0.639,0.099,1.17,0.756,1.17,1.477c0,0.963-0.64,1.62-1.738,1.62H167.702z M171.285,96.967c0-0.54-0.36-0.973-1.035-0.973h-1.801
			v1.936h1.801C170.925,97.93,171.285,97.516,171.285,96.967z M171.402,99.632c0-0.55-0.378-1.035-1.116-1.035h-1.837v2.07h1.837
			C170.988,100.667,171.402,100.271,171.402,99.632z"/>
		<path d="M173.084,99.154c0-1.261,0.828-2.277,2.151-2.277s2.152,1.017,2.152,2.277s-0.829,2.287-2.152,2.287
			S173.084,100.415,173.084,99.154z M176.676,99.154c0-0.882-0.513-1.675-1.44-1.675s-1.449,0.793-1.449,1.675
			c0,0.892,0.522,1.684,1.449,1.684S176.676,100.046,176.676,99.154z"/>
		<path d="M181.418,101.333v-2.845c0-0.766-0.387-1.009-0.972-1.009c-0.531,0-1.035,0.324-1.287,0.676v3.178h-0.675v-4.349h0.675
			v0.631c0.306-0.36,0.899-0.738,1.548-0.738c0.91,0,1.387,0.459,1.387,1.404v3.052H181.418z"/>
		<path d="M181.877,102.773l0.242-0.513c0.153,0.152,0.352,0.278,0.621,0.278c0.405,0,0.703-0.233,0.703-0.783v-4.771h0.675v4.771
			c0,0.855-0.46,1.342-1.288,1.342C182.39,103.098,182.156,102.989,181.877,102.773z M183.326,95.913
			c0-0.252,0.207-0.459,0.449-0.459c0.252,0,0.459,0.207,0.459,0.459s-0.207,0.45-0.459,0.45
			C183.533,96.363,183.326,96.165,183.326,95.913z"/>
		<path d="M185.216,99.154c0-1.261,0.828-2.277,2.151-2.277s2.152,1.017,2.152,2.277s-0.829,2.287-2.152,2.287
			S185.216,100.415,185.216,99.154z M188.808,99.154c0-0.882-0.513-1.675-1.44-1.675s-1.449,0.793-1.449,1.675
			c0,0.892,0.521,1.684,1.449,1.684S188.808,100.046,188.808,99.154z"/>
		<path d="M193.551,101.333v-0.612c-0.334,0.378-0.9,0.721-1.549,0.721c-0.909,0-1.387-0.441-1.387-1.387v-3.07h0.676v2.863
			c0,0.765,0.387,0.99,0.973,0.99c0.531,0,1.035-0.306,1.287-0.657v-3.196h0.675v4.349H193.551z"/>
		<path d="M195.574,101.333v-4.349h0.676v0.702c0.351-0.459,0.854-0.792,1.449-0.792v0.693c-0.082-0.018-0.162-0.027-0.271-0.027
			c-0.414,0-0.981,0.343-1.179,0.693v3.079H195.574z"/>
	</g>
	<g enable-background="new    ">
		<path d="M218.133,154.264v-6.005h2.674c1.044,0,1.684,0.63,1.684,1.53c0,0.757-0.505,1.261-1.054,1.378
			c0.64,0.099,1.171,0.756,1.171,1.477c0,0.963-0.641,1.62-1.738,1.62H218.133z M221.715,149.897c0-0.54-0.359-0.973-1.035-0.973
			h-1.801v1.936h1.801C221.356,150.86,221.715,150.446,221.715,149.897z M221.832,152.562c0-0.55-0.377-1.035-1.115-1.035h-1.838
			v2.07h1.838C221.418,153.598,221.832,153.201,221.832,152.562z"/>
		<path d="M223.515,152.085c0-1.261,0.828-2.277,2.151-2.277s2.152,1.017,2.152,2.277s-0.829,2.287-2.152,2.287
			S223.515,153.346,223.515,152.085z M227.107,152.085c0-0.882-0.513-1.675-1.44-1.675s-1.449,0.793-1.449,1.675
			c0,0.892,0.521,1.684,1.449,1.684S227.107,152.977,227.107,152.085z"/>
		<path d="M231.85,154.264v-2.845c0-0.766-0.387-1.009-0.973-1.009c-0.531,0-1.035,0.324-1.287,0.676v3.178h-0.676v-4.349h0.676
			v0.631c0.307-0.36,0.9-0.738,1.549-0.738c0.908,0,1.386,0.459,1.386,1.404v3.052H231.85z"/>
		<path d="M232.307,155.704l0.244-0.513c0.152,0.152,0.351,0.278,0.621,0.278c0.404,0,0.701-0.233,0.701-0.783v-4.771h0.676v4.771
			c0,0.855-0.459,1.342-1.287,1.342C232.821,156.028,232.586,155.92,232.307,155.704z M233.756,148.844
			c0-0.252,0.207-0.459,0.451-0.459c0.252,0,0.459,0.207,0.459,0.459s-0.207,0.45-0.459,0.45
			C233.963,149.294,233.756,149.096,233.756,148.844z"/>
		<path d="M235.647,152.085c0-1.261,0.828-2.277,2.151-2.277s2.151,1.017,2.151,2.277s-0.828,2.287-2.151,2.287
			S235.647,153.346,235.647,152.085z M239.239,152.085c0-0.882-0.514-1.675-1.44-1.675s-1.449,0.793-1.449,1.675
			c0,0.892,0.522,1.684,1.449,1.684S239.239,152.977,239.239,152.085z"/>
		<path d="M243.981,154.264v-0.612c-0.332,0.378-0.899,0.721-1.548,0.721c-0.909,0-1.386-0.441-1.386-1.387v-3.07h0.675v2.863
			c0,0.765,0.387,0.99,0.972,0.99c0.531,0,1.035-0.306,1.287-0.657v-3.196h0.676v4.349H243.981z"/>
		<path d="M246.005,154.264v-4.349h0.675v0.702c0.352-0.459,0.855-0.792,1.449-0.792v0.693c-0.08-0.018-0.162-0.027-0.27-0.027
			c-0.414,0-0.981,0.343-1.18,0.693v3.079H246.005z"/>
		<path d="M248.399,155.407l-0.332-0.279c0.287-0.189,0.549-0.54,0.584-0.837c-0.018,0.009-0.08,0.018-0.125,0.018
			c-0.252,0-0.433-0.189-0.433-0.459c0-0.261,0.207-0.486,0.478-0.486c0.297,0,0.566,0.252,0.566,0.685
			C249.137,154.597,248.813,155.11,248.399,155.407z"/>
		<path d="M252.647,154.264v-6.005h3.935v0.666h-3.187v1.936h3.123v0.667h-3.123v2.07h3.187v0.666H252.647z M254.61,147.755h-0.513
			l1.332-1.297h0.702L254.61,147.755z"/>
		<path d="M257.875,153.354v-2.845h-0.72v-0.595h0.72v-1.188h0.676v1.188h0.883v0.595h-0.883v2.7c0,0.324,0.145,0.559,0.441,0.559
			c0.189,0,0.369-0.081,0.459-0.18l0.198,0.504c-0.171,0.162-0.415,0.279-0.811,0.279
			C258.199,154.372,257.875,154.003,257.875,153.354z"/>
		<path d="M260.27,148.844c0-0.252,0.207-0.459,0.45-0.459c0.252,0,0.459,0.207,0.459,0.459s-0.207,0.45-0.459,0.45
			C260.477,149.294,260.27,149.096,260.27,148.844z M260.387,154.264v-4.349h0.676v4.349H260.387z"/>
		<path d="M262.16,152.085c0-1.261,0.899-2.277,2.143-2.277c1.314,0,2.088,1.026,2.088,2.331v0.172h-3.52
			c0.054,0.818,0.63,1.503,1.566,1.503c0.494,0,0.999-0.198,1.341-0.549l0.324,0.44c-0.433,0.433-1.017,0.667-1.729,0.667
			C263.087,154.372,262.16,153.444,262.16,152.085z M264.293,150.365c-0.928,0-1.387,0.783-1.422,1.449h2.854
			C265.715,151.167,265.283,150.365,264.293,150.365z"/>
		<path d="M270.413,154.264v-2.845c0-0.766-0.387-1.009-0.972-1.009c-0.531,0-1.035,0.324-1.287,0.676v3.178h-0.676v-4.349h0.676
			v0.631c0.305-0.36,0.899-0.738,1.548-0.738c0.909,0,1.386,0.459,1.386,1.404v3.052H270.413z"/>
		<path d="M275.372,154.264v-2.845c0-0.766-0.387-1.009-0.972-1.009c-0.531,0-1.035,0.324-1.287,0.676v3.178h-0.676v-4.349h0.676
			v0.631c0.305-0.36,0.899-0.738,1.548-0.738c0.909,0,1.386,0.459,1.386,1.404v3.052H275.372z"/>
		<path d="M277.145,152.085c0-1.261,0.9-2.277,2.143-2.277c1.314,0,2.088,1.026,2.088,2.331v0.172h-3.52
			c0.055,0.818,0.631,1.503,1.566,1.503c0.495,0,1-0.198,1.342-0.549l0.324,0.44c-0.433,0.433-1.018,0.667-1.729,0.667
			C278.073,154.372,277.145,153.444,277.145,152.085z M279.278,150.365c-0.927,0-1.386,0.783-1.422,1.449h2.854
			C280.7,151.167,280.268,150.365,279.278,150.365z"/>
		<path d="M282.328,153.858c0-0.27,0.225-0.495,0.495-0.495s0.495,0.226,0.495,0.495c0,0.261-0.225,0.495-0.495,0.495
			S282.328,154.119,282.328,153.858z M282.545,152.58l-0.145-4.321h0.846l-0.144,4.321H282.545z"/>
	</g>
	<g enable-background="new    ">
		<path d="M190.643,215.013c0.591,0,1.024,0.239,1.324,0.531l-0.307,0.396c-0.3-0.262-0.613-0.419-0.995-0.419
			c-0.837,0-1.413,0.568-1.413,1.405c0,0.83,0.561,1.391,1.398,1.391c0.448,0,0.822-0.201,1.129-0.456l0.27,0.396
			c-0.396,0.359-0.905,0.568-1.443,0.568c-1.137,0-1.988-0.695-1.988-1.899C188.617,215.708,189.544,215.013,190.643,215.013z"/>
		<path d="M194.749,215.013c0.957,0,1.794,0.695,1.794,1.914c0,1.204-0.837,1.899-1.794,1.899s-1.795-0.695-1.795-1.899
			C192.954,215.708,193.792,215.013,194.749,215.013z M194.749,218.317c0.695,0,1.159-0.561,1.159-1.391
			c0-0.837-0.464-1.405-1.159-1.405s-1.159,0.568-1.159,1.405C193.59,217.757,194.054,218.317,194.749,218.317z"/>
		<path d="M197.689,215.103h0.509l0.052,0.621h0.03c0.381-0.404,0.8-0.711,1.368-0.711c0.859,0,1.256,0.509,1.256,1.466v2.258
			h-0.613v-2.176c0-0.688-0.239-1.017-0.837-1.017c-0.434,0-0.726,0.217-1.151,0.658v2.534h-0.613V215.103z"/>
		<path d="M202.317,217.854c0.404,0.299,0.853,0.493,1.503,0.493c0.651,0,0.973-0.254,0.973-0.568c0-0.284-0.292-0.486-1.182-0.703
			c-0.748-0.187-1.383-0.516-1.383-1.031c0-0.583,0.523-1.032,1.524-1.032c0.546,0,1.1,0.217,1.458,0.464l-0.299,0.396
			c-0.321-0.225-0.71-0.382-1.159-0.382c-0.68,0-0.896,0.239-0.896,0.523c0,0.299,0.448,0.479,1.106,0.644
			c0.979,0.246,1.45,0.53,1.45,1.084c0,0.591-0.575,1.084-1.615,1.084c-0.71,0-1.338-0.262-1.779-0.568L202.317,217.854z"/>
		<path d="M208.21,215.013c0.957,0,1.794,0.695,1.794,1.914c0,1.204-0.837,1.899-1.794,1.899s-1.795-0.695-1.795-1.899
			C206.415,215.708,207.253,215.013,208.21,215.013z M208.21,218.317c0.695,0,1.159-0.561,1.159-1.391
			c0-0.837-0.464-1.405-1.159-1.405s-1.159,0.568-1.159,1.405C207.051,217.757,207.515,218.317,208.21,218.317z"/>
		<path d="M211.06,213.413h1.854v4.149c0,0.531,0.276,0.755,0.71,0.755c0.21,0,0.419-0.052,0.688-0.172l0.156,0.464
			c-0.328,0.119-0.583,0.217-0.979,0.217c-0.77,0-1.188-0.449-1.188-1.309v-3.604h-1.241V213.413z"/>
		<path d="M217.304,215.013c1.04,0,1.652,0.681,1.652,1.705c0,0.127-0.007,0.262-0.022,0.352h-2.841
			c0.03,0.77,0.599,1.264,1.391,1.264c0.427,0,0.771-0.128,1.106-0.337l0.217,0.403c-0.358,0.232-0.814,0.427-1.397,0.427
			c-1.077,0-1.952-0.71-1.952-1.899C215.457,215.738,216.363,215.013,217.304,215.013z M218.389,216.628
			c0-0.726-0.404-1.129-1.077-1.129c-0.591,0-1.129,0.419-1.227,1.129H218.389z"/>
		<path d="M221.671,217.562c0.336,0,0.605,0.254,0.605,0.636c0,0.374-0.27,0.628-0.605,0.628c-0.337,0-0.605-0.254-0.605-0.628
			C221.066,217.816,221.334,217.562,221.671,217.562z"/>
		<path d="M224.521,213.413h1.854v4.149c0,0.531,0.276,0.755,0.71,0.755c0.21,0,0.419-0.052,0.688-0.172l0.156,0.464
			c-0.328,0.119-0.583,0.217-0.979,0.217c-0.77,0-1.188-0.449-1.188-1.309v-3.604h-1.241V213.413z"/>
		<path d="M230.646,215.013c0.957,0,1.794,0.695,1.794,1.914c0,1.204-0.837,1.899-1.794,1.899s-1.795-0.695-1.795-1.899
			C228.851,215.708,229.689,215.013,230.646,215.013z M230.646,218.317c0.695,0,1.159-0.561,1.159-1.391
			c0-0.837-0.464-1.405-1.159-1.405s-1.159,0.568-1.159,1.405C229.487,217.757,229.95,218.317,230.646,218.317z"/>
		<path d="M234.027,218.595v-0.03c-0.194-0.104-0.374-0.292-0.374-0.599c0-0.231,0.157-0.493,0.434-0.68v-0.03
			c-0.247-0.187-0.448-0.509-0.448-0.942c0-0.792,0.657-1.301,1.428-1.301c0.209,0,0.381,0.03,0.538,0.09h1.503v0.471h-0.972
			c0.172,0.18,0.336,0.441,0.336,0.763c0,0.778-0.62,1.249-1.405,1.249c-0.187,0-0.411-0.045-0.613-0.135
			c-0.18,0.112-0.284,0.247-0.284,0.419c0,0.291,0.277,0.419,0.756,0.419h0.814c0.935,0,1.383,0.239,1.383,0.852
			c0,0.681-0.784,1.271-2.019,1.271c-1.062,0-1.675-0.366-1.675-1.01C233.428,219.11,233.638,218.818,234.027,218.595z
			 M235.148,219.985c0.845,0,1.368-0.374,1.368-0.748c0-0.344-0.276-0.441-0.83-0.441h-0.71c-0.209,0-0.396-0.015-0.553-0.06
			c-0.345,0.187-0.464,0.396-0.464,0.605C233.959,219.724,234.37,219.985,235.148,219.985z M235.903,216.313
			c0-0.508-0.373-0.852-0.837-0.852c-0.456,0-0.838,0.344-0.838,0.852c0,0.523,0.382,0.86,0.838,0.86
			C235.53,217.174,235.903,216.837,235.903,216.313z"/>
		<path d="M238.932,216.658c0-1.443,0.643-2.588,1.682-3.395l0.337,0.313c-1.002,0.845-1.466,1.824-1.466,3.081
			c0,1.256,0.464,2.235,1.466,3.08l-0.337,0.314C239.574,219.245,238.932,218.101,238.932,216.658z"/>
		<path d="M242.851,214.422l-0.016-0.822h0.823l-0.008,0.822l-0.194,1.683h-0.419L242.851,214.422z M244.563,214.422l-0.008-0.822
			h0.822l-0.015,0.822l-0.187,1.683h-0.419L244.563,214.422z"/>
	</g>
	<g enable-background="new    ">
		<path d="M246.934,218.736v-4.987h2.221c0.867,0,1.398,0.523,1.398,1.271c0,0.628-0.419,1.047-0.875,1.144
			c0.531,0.082,0.972,0.628,0.972,1.227c0,0.8-0.53,1.346-1.442,1.346H246.934z M249.909,215.11c0-0.449-0.299-0.808-0.859-0.808
			h-1.495v1.607h1.495C249.611,215.91,249.909,215.566,249.909,215.11z M250.007,217.323c0-0.456-0.314-0.86-0.927-0.86h-1.525v1.72
			h1.525C249.663,218.183,250.007,217.854,250.007,217.323z"/>
		<path d="M251.406,216.927c0-1.047,0.688-1.892,1.787-1.892c1.099,0,1.787,0.845,1.787,1.892s-0.688,1.899-1.787,1.899
			C252.094,218.826,251.406,217.974,251.406,216.927z M254.39,216.927c0-0.732-0.427-1.391-1.196-1.391
			c-0.771,0-1.204,0.658-1.204,1.391c0,0.74,0.434,1.398,1.204,1.398C253.963,218.325,254.39,217.667,254.39,216.927z"/>
		<path d="M258.33,218.736v-2.362c0-0.636-0.321-0.838-0.808-0.838c-0.44,0-0.859,0.27-1.069,0.561v2.64h-0.561v-3.611h0.561v0.523
			c0.255-0.299,0.748-0.613,1.286-0.613c0.756,0,1.151,0.382,1.151,1.167v2.534H258.33z"/>
		<path d="M258.713,219.933l0.202-0.426c0.127,0.127,0.291,0.231,0.516,0.231c0.337,0,0.583-0.194,0.583-0.65v-3.963h0.561v3.963
			c0,0.71-0.381,1.114-1.068,1.114C259.139,220.202,258.945,220.112,258.713,219.933z M259.917,214.235
			c0-0.209,0.172-0.382,0.374-0.382c0.209,0,0.381,0.173,0.381,0.382s-0.172,0.374-0.381,0.374
			C260.089,214.609,259.917,214.444,259.917,214.235z"/>
		<path d="M261.488,216.927c0-1.047,0.688-1.892,1.787-1.892c1.099,0,1.787,0.845,1.787,1.892s-0.688,1.899-1.787,1.899
			C262.175,218.826,261.488,217.974,261.488,216.927z M264.471,216.927c0-0.732-0.427-1.391-1.196-1.391
			c-0.771,0-1.204,0.658-1.204,1.391c0,0.74,0.434,1.398,1.204,1.398C264.044,218.325,264.471,217.667,264.471,216.927z"/>
		<path d="M268.411,218.736v-0.509c-0.276,0.314-0.747,0.599-1.286,0.599c-0.755,0-1.151-0.366-1.151-1.151v-2.55h0.561v2.378
			c0,0.636,0.322,0.822,0.808,0.822c0.441,0,0.86-0.254,1.069-0.546v-2.654h0.561v3.611H268.411z"/>
		<path d="M270.095,218.736v-3.611h0.561v0.583c0.292-0.381,0.711-0.658,1.204-0.658v0.576c-0.067-0.015-0.135-0.022-0.225-0.022
			c-0.344,0-0.814,0.284-0.979,0.576v2.557H270.095z"/>
		<path d="M272.084,219.686l-0.277-0.231c0.239-0.157,0.456-0.448,0.486-0.695c-0.015,0.008-0.067,0.015-0.104,0.015
			c-0.21,0-0.359-0.156-0.359-0.381c0-0.217,0.172-0.404,0.396-0.404c0.247,0,0.472,0.21,0.472,0.568
			C272.698,219.013,272.428,219.439,272.084,219.686z"/>
		<path d="M275.614,218.736v-4.987h3.268v0.554h-2.646v1.607h2.594v0.553h-2.594v1.72h2.646v0.554H275.614z"/>
		<path d="M279.959,217.981v-2.363h-0.598v-0.493h0.598v-0.987h0.561v0.987h0.733v0.493h-0.733v2.243c0,0.27,0.12,0.464,0.366,0.464
			c0.157,0,0.307-0.067,0.382-0.149l0.164,0.419c-0.142,0.134-0.344,0.231-0.673,0.231
			C280.229,218.826,279.959,218.52,279.959,217.981z"/>
		<path d="M281.948,214.235c0-0.209,0.172-0.382,0.374-0.382c0.209,0,0.381,0.173,0.381,0.382s-0.172,0.374-0.381,0.374
			C282.12,214.609,281.948,214.444,281.948,214.235z M282.045,218.736v-3.611h0.561v3.611H282.045z"/>
		<path d="M283.519,216.927c0-1.047,0.747-1.892,1.779-1.892c1.092,0,1.734,0.853,1.734,1.937v0.143h-2.923
			c0.045,0.68,0.523,1.248,1.301,1.248c0.411,0,0.83-0.164,1.114-0.456l0.269,0.366c-0.358,0.359-0.845,0.554-1.436,0.554
			C284.288,218.826,283.519,218.056,283.519,216.927z M285.29,215.499c-0.77,0-1.151,0.65-1.181,1.204h2.37
			C286.472,216.164,286.114,215.499,285.29,215.499z"/>
		<path d="M290.375,218.736v-2.362c0-0.636-0.321-0.838-0.808-0.838c-0.44,0-0.859,0.27-1.069,0.561v2.64h-0.561v-3.611h0.561v0.523
			c0.255-0.299,0.748-0.613,1.286-0.613c0.756,0,1.151,0.382,1.151,1.167v2.534H290.375z"/>
		<path d="M294.496,218.736v-2.362c0-0.636-0.321-0.838-0.808-0.838c-0.44,0-0.859,0.27-1.069,0.561v2.64h-0.561v-3.611h0.561v0.523
			c0.255-0.299,0.748-0.613,1.286-0.613c0.756,0,1.151,0.382,1.151,1.167v2.534H294.496z"/>
		<path d="M295.97,216.927c0-1.047,0.747-1.892,1.779-1.892c1.092,0,1.734,0.853,1.734,1.937v0.143h-2.923
			c0.045,0.68,0.523,1.248,1.301,1.248c0.411,0,0.83-0.164,1.114-0.456l0.269,0.366c-0.358,0.359-0.845,0.554-1.436,0.554
			C296.74,218.826,295.97,218.056,295.97,216.927z M297.741,215.499c-0.77,0-1.151,0.65-1.181,1.204h2.37
			C298.923,216.164,298.565,215.499,297.741,215.499z"/>
		<path d="M300.278,218.399c0-0.224,0.188-0.411,0.411-0.411c0.225,0,0.412,0.188,0.412,0.411c0,0.218-0.188,0.412-0.412,0.412
			C300.465,218.812,300.278,218.617,300.278,218.399z M300.457,217.338l-0.119-3.589h0.702l-0.119,3.589H300.457z"/>
	</g>
	<g enable-background="new    ">
		<path d="M303.158,214.422l-0.016-0.822h0.822l-0.007,0.822l-0.194,1.683h-0.419L303.158,214.422z M304.87,214.422l-0.008-0.822
			h0.822l-0.015,0.822l-0.187,1.683h-0.419L304.87,214.422z"/>
		<path d="M307.571,219.738c1.002-0.845,1.466-1.824,1.466-3.08c0-1.257-0.464-2.236-1.466-3.081l0.337-0.313
			c1.039,0.807,1.682,1.951,1.682,3.395c0,1.442-0.643,2.587-1.682,3.395L307.571,219.738z"/>
	</g>
	<g enable-background="new    ">
		<path d="M311.846,219.671l-0.277-0.225c0.239-0.156,0.456-0.456,0.486-0.702c-0.015,0.007-0.067,0.022-0.104,0.022
			c-0.21,0-0.359-0.165-0.359-0.382c0-0.225,0.172-0.411,0.396-0.411c0.247,0,0.472,0.209,0.472,0.568
			C312.459,219.006,312.19,219.432,311.846,219.671z M311.591,215.484c0-0.225,0.188-0.412,0.411-0.412
			c0.225,0,0.412,0.188,0.412,0.412c0,0.217-0.188,0.411-0.412,0.411C311.779,215.896,311.591,215.701,311.591,215.484z"/>
	</g>
	<g enable-background="new    ">
		<path d="M162.492,17.012c0.553,0,0.959,0.225,1.24,0.498l-0.288,0.371c-0.28-0.245-0.574-0.393-0.931-0.393
			c-0.785,0-1.324,0.532-1.324,1.316c0,0.777,0.525,1.303,1.31,1.303c0.42,0,0.771-0.188,1.058-0.427l0.252,0.371
			c-0.371,0.336-0.847,0.532-1.352,0.532c-1.064,0-1.863-0.651-1.863-1.779C160.594,17.663,161.463,17.012,162.492,17.012z"/>
		<path d="M166.335,17.012c0.896,0,1.681,0.651,1.681,1.793c0,1.128-0.785,1.779-1.681,1.779s-1.681-0.651-1.681-1.779
			C164.654,17.663,165.438,17.012,166.335,17.012z M166.335,20.107c0.651,0,1.085-0.525,1.085-1.303
			c0-0.784-0.434-1.316-1.085-1.316s-1.085,0.532-1.085,1.316C165.249,19.582,165.683,20.107,166.335,20.107z"/>
		<path d="M171.971,20.5h-0.469l-0.049-0.596h-0.028c-0.343,0.399-0.743,0.68-1.268,0.68c-0.812,0-1.184-0.477-1.184-1.373v-2.115
			h0.582v2.038c0,0.645,0.217,0.953,0.784,0.953c0.393,0,0.68-0.189,1.058-0.631v-2.36h0.575V20.5z"/>
		<path d="M173.285,17.096h0.476l0.049,0.582h0.028c0.357-0.379,0.75-0.666,1.282-0.666c0.806,0,1.177,0.477,1.177,1.373V20.5
			h-0.574v-2.038c0-0.645-0.224-0.952-0.785-0.952c-0.406,0-0.679,0.203-1.079,0.616V20.5h-0.574V17.096z"/>
		<path d="M178.277,17.565h-0.959v-0.435l0.98-0.035l0.077-0.952h0.476v0.952h1.674v0.47h-1.674v1.618
			c0,0.609,0.203,0.932,0.861,0.932c0.322,0,0.581-0.063,0.819-0.154l0.127,0.42c-0.309,0.112-0.701,0.203-1.072,0.203
			c-0.987,0-1.31-0.567-1.31-1.407V17.565z"/>
		<path d="M182.056,17.096h0.477l0.049,0.806h0.021c0.357-0.546,0.891-0.89,1.521-0.89c0.252,0,0.462,0.035,0.673,0.141
			l-0.134,0.497c-0.238-0.084-0.364-0.119-0.63-0.119c-0.512,0-0.995,0.267-1.401,0.974V20.5h-0.574V17.096z"/>
		<path d="M186.13,21.487c0.476,0,0.763-0.308,0.932-0.729l0.104-0.252l-1.59-3.411h0.582l0.833,1.885
			c0.134,0.301,0.28,0.658,0.421,0.987h0.027c0.119-0.322,0.252-0.68,0.364-0.987l0.743-1.885h0.545l-1.498,3.685
			c-0.252,0.672-0.672,1.184-1.443,1.184c-0.16,0-0.328-0.028-0.447-0.07l0.119-0.455C185.912,21.467,186.026,21.487,186.13,21.487z
			"/>
		<path d="M191.948,15.821c0.554,0,0.988,0.267,1.254,0.561l-0.329,0.371c-0.238-0.252-0.54-0.42-0.925-0.42
			c-0.883,0-1.449,0.714-1.449,1.855c0,1.156,0.566,1.885,1.449,1.885c0.42,0,0.736-0.183,1.029-0.512l0.336,0.357
			c-0.363,0.42-0.812,0.665-1.4,0.665c-1.155,0-2.017-0.883-2.017-2.381C189.896,16.725,190.75,15.821,191.948,15.821z"/>
		<path d="M195.735,17.012c0.896,0,1.682,0.651,1.682,1.793c0,1.128-0.785,1.779-1.682,1.779s-1.681-0.651-1.681-1.779
			C194.054,17.663,194.838,17.012,195.735,17.012z M195.735,20.107c0.651,0,1.086-0.525,1.086-1.303
			c0-0.784-0.435-1.316-1.086-1.316s-1.086,0.532-1.086,1.316C194.649,19.582,195.083,20.107,195.735,20.107z"/>
		<path d="M199.801,17.012c0.414,0,0.715,0.169,1.029,0.441l-0.021-0.63v-1.31h0.574V20.5h-0.476l-0.049-0.448h-0.021
			c-0.28,0.287-0.687,0.532-1.107,0.532c-0.889,0-1.477-0.645-1.477-1.779C198.254,17.698,198.996,17.012,199.801,17.012z
			 M199.85,20.101c0.336,0,0.658-0.175,0.96-0.511v-1.695c-0.308-0.287-0.603-0.399-0.896-0.399c-0.589,0-1.064,0.525-1.064,1.303
			C198.849,19.61,199.22,20.101,199.85,20.101z"/>
		<path d="M204.246,17.012c0.974,0,1.549,0.638,1.549,1.598c0,0.119-0.008,0.245-0.021,0.329h-2.662
			c0.028,0.721,0.561,1.184,1.303,1.184c0.399,0,0.722-0.119,1.037-0.315l0.203,0.378c-0.336,0.218-0.764,0.399-1.311,0.399
			c-1.008,0-1.827-0.665-1.827-1.779C202.517,17.691,203.364,17.012,204.246,17.012z M205.262,18.525
			c0-0.68-0.378-1.058-1.008-1.058c-0.554,0-1.059,0.392-1.148,1.058H205.262z"/>
	</g>
	<g enable-background="new    ">
		<path d="M262.401,17.096h0.477l0.049,0.582h0.028c0.357-0.379,0.749-0.666,1.282-0.666c0.805,0,1.176,0.477,1.176,1.373V20.5
			h-0.574v-2.038c0-0.645-0.224-0.952-0.784-0.952c-0.406,0-0.679,0.203-1.079,0.616V20.5h-0.574V17.096z"/>
		<path d="M268.983,18.343c-0.015-0.462-0.246-0.854-0.904-0.854c-0.441,0-0.875,0.21-1.19,0.406l-0.224-0.393
			c0.343-0.224,0.917-0.49,1.512-0.49c0.932,0,1.381,0.554,1.381,1.401V20.5h-0.47l-0.049-0.462h-0.021
			c-0.379,0.294-0.862,0.546-1.346,0.546c-0.637,0-1.155-0.357-1.155-0.967C266.517,18.854,267.225,18.482,268.983,18.343z
			 M267.826,20.122c0.385,0,0.771-0.183,1.156-0.505v-0.896c-1.457,0.119-1.906,0.406-1.906,0.854
			C267.076,19.961,267.434,20.122,267.826,20.122z"/>
		<path d="M270.571,17.096h0.447l0.049,0.448h0.021c0.168-0.314,0.379-0.532,0.764-0.532c0.343,0,0.561,0.196,0.645,0.589
			c0.203-0.357,0.427-0.589,0.805-0.589c0.47,0,0.742,0.372,0.742,1.051V20.5h-0.553v-2.389c0-0.398-0.119-0.602-0.371-0.602
			c-0.245,0-0.406,0.175-0.582,0.525V20.5h-0.461v-2.389c0-0.398-0.134-0.602-0.386-0.602c-0.238,0-0.393,0.175-0.567,0.525V20.5
			h-0.553V17.096z"/>
		<path d="M276.563,17.012c0.973,0,1.548,0.638,1.548,1.598c0,0.119-0.007,0.245-0.021,0.329h-2.662
			c0.027,0.721,0.561,1.184,1.303,1.184c0.398,0,0.721-0.119,1.037-0.315l0.203,0.378c-0.337,0.218-0.764,0.399-1.311,0.399
			c-1.008,0-1.828-0.665-1.828-1.779C274.832,17.691,275.68,17.012,276.563,17.012z M277.578,18.525c0-0.68-0.379-1.058-1.009-1.058
			c-0.554,0-1.058,0.392-1.148,1.058H277.578z"/>
	</g>
	<g enable-background="new    ">
		<path d="M121.564,101.2v-0.028c-0.182-0.098-0.35-0.273-0.35-0.561c0-0.217,0.147-0.462,0.406-0.637v-0.028
			c-0.231-0.175-0.42-0.477-0.42-0.883c0-0.742,0.617-1.219,1.338-1.219c0.196,0,0.357,0.028,0.504,0.084h1.408v0.441h-0.911
			c0.161,0.168,0.315,0.413,0.315,0.715c0,0.729-0.582,1.17-1.317,1.17c-0.175,0-0.385-0.043-0.574-0.127
			c-0.168,0.105-0.266,0.231-0.266,0.393c0,0.273,0.259,0.393,0.708,0.393h0.763c0.875,0,1.296,0.224,1.296,0.798
			c0,0.638-0.736,1.19-1.891,1.19c-0.995,0-1.569-0.343-1.569-0.945C121.004,101.684,121.2,101.41,121.564,101.2z M122.615,102.503
			c0.792,0,1.282-0.351,1.282-0.7c0-0.322-0.259-0.414-0.777-0.414h-0.666c-0.196,0-0.371-0.014-0.519-0.056
			c-0.322,0.175-0.434,0.371-0.434,0.567C121.501,102.258,121.886,102.503,122.615,102.503z M123.323,99.063
			c0-0.476-0.351-0.798-0.785-0.798c-0.427,0-0.784,0.322-0.784,0.798c0,0.49,0.357,0.806,0.784,0.806
			C122.972,99.869,123.323,99.554,123.323,99.063z"/>
		<path d="M125.722,97.929h0.477l0.049,0.806h0.021c0.357-0.546,0.89-0.89,1.52-0.89c0.252,0,0.462,0.035,0.672,0.141l-0.133,0.497
			c-0.238-0.084-0.364-0.119-0.63-0.119c-0.511,0-0.995,0.267-1.401,0.974v1.996h-0.574V97.929z"/>
		<path d="M131.113,97.845c0.973,0,1.548,0.638,1.548,1.598c0,0.119-0.007,0.245-0.021,0.329h-2.662
			c0.028,0.721,0.56,1.184,1.303,1.184c0.399,0,0.721-0.119,1.037-0.315l0.203,0.378c-0.336,0.218-0.764,0.399-1.31,0.399
			c-1.008,0-1.828-0.665-1.828-1.779C129.383,98.524,130.23,97.845,131.113,97.845z M132.128,99.358c0-0.68-0.378-1.058-1.008-1.058
			c-0.553,0-1.058,0.392-1.148,1.058H132.128z"/>
		<path d="M135.313,97.845c0.973,0,1.548,0.638,1.548,1.598c0,0.119-0.007,0.245-0.021,0.329h-2.662
			c0.028,0.721,0.56,1.184,1.303,1.184c0.399,0,0.721-0.119,1.037-0.315l0.203,0.378c-0.336,0.218-0.764,0.399-1.31,0.399
			c-1.008,0-1.828-0.665-1.828-1.779C133.583,98.524,134.43,97.845,135.313,97.845z M136.328,99.358c0-0.68-0.378-1.058-1.008-1.058
			c-0.553,0-1.058,0.392-1.148,1.058H136.328z"/>
		<path d="M138.742,98.398h-0.959v-0.435l0.98-0.035l0.077-0.952h0.476v0.952h1.674v0.47h-1.674v1.618
			c0,0.609,0.203,0.932,0.861,0.932c0.322,0,0.582-0.063,0.82-0.154l0.126,0.42c-0.308,0.112-0.701,0.203-1.072,0.203
			c-0.987,0-1.31-0.567-1.31-1.407V98.398z"/>
		<path d="M142.13,97.929h2.157v3.404h-0.574v-2.935h-1.583V97.929z M143.474,96.787c0-0.272,0.196-0.448,0.462-0.448
			c0.259,0,0.462,0.176,0.462,0.448c0,0.267-0.203,0.441-0.462,0.441C143.671,97.229,143.474,97.054,143.474,96.787z"/>
		<path d="M146.351,97.929h0.476l0.049,0.582h0.028c0.357-0.379,0.75-0.666,1.282-0.666c0.806,0,1.177,0.477,1.177,1.373v2.115
			h-0.574v-2.038c0-0.645-0.224-0.952-0.785-0.952c-0.406,0-0.679,0.203-1.079,0.616v2.374h-0.574V97.929z"/>
		<path d="M150.964,101.2v-0.028c-0.182-0.098-0.35-0.273-0.35-0.561c0-0.217,0.147-0.462,0.406-0.637v-0.028
			c-0.231-0.175-0.42-0.477-0.42-0.883c0-0.742,0.617-1.219,1.338-1.219c0.196,0,0.357,0.028,0.504,0.084h1.408v0.441h-0.911
			c0.161,0.168,0.315,0.413,0.315,0.715c0,0.729-0.582,1.17-1.317,1.17c-0.175,0-0.385-0.043-0.574-0.127
			c-0.168,0.105-0.266,0.231-0.266,0.393c0,0.273,0.259,0.393,0.708,0.393h0.763c0.875,0,1.296,0.224,1.296,0.798
			c0,0.638-0.736,1.19-1.891,1.19c-0.995,0-1.569-0.343-1.569-0.945C150.404,101.684,150.599,101.41,150.964,101.2z
			 M152.014,102.503c0.792,0,1.282-0.351,1.282-0.7c0-0.322-0.259-0.414-0.777-0.414h-0.666c-0.196,0-0.371-0.014-0.519-0.056
			c-0.322,0.175-0.434,0.371-0.434,0.567C150.901,102.258,151.286,102.503,152.014,102.503z M152.722,99.063
			c0-0.476-0.351-0.798-0.785-0.798c-0.427,0-0.784,0.322-0.784,0.798c0,0.49,0.357,0.806,0.784,0.806
			C152.371,99.869,152.722,99.554,152.722,99.063z"/>
	</g>
	<g enable-background="new    ">
		<path d="M298.17,150.096h0.448l0.049,0.448h0.021c0.168-0.314,0.379-0.532,0.764-0.532c0.344,0,0.561,0.196,0.645,0.589
			c0.203-0.357,0.428-0.589,0.806-0.589c0.47,0,0.742,0.372,0.742,1.051v2.438h-0.554v-2.389c0-0.398-0.119-0.602-0.371-0.602
			c-0.244,0-0.406,0.175-0.581,0.525v2.465h-0.462v-2.389c0-0.398-0.133-0.602-0.385-0.602c-0.238,0-0.393,0.175-0.568,0.525v2.465
			h-0.553V150.096z"/>
		<path d="M304.162,150.012c0.974,0,1.549,0.638,1.549,1.598c0,0.119-0.008,0.245-0.021,0.329h-2.662
			c0.028,0.721,0.561,1.184,1.303,1.184c0.399,0,0.722-0.119,1.037-0.315l0.203,0.378c-0.336,0.218-0.764,0.399-1.311,0.399
			c-1.008,0-1.827-0.665-1.827-1.779C302.433,150.691,303.28,150.012,304.162,150.012z M305.178,151.525
			c0-0.68-0.378-1.058-1.008-1.058c-0.554,0-1.059,0.392-1.148,1.058H305.178z"/>
		<path d="M306.934,152.674c0.379,0.28,0.799,0.462,1.408,0.462s0.91-0.238,0.91-0.532c0-0.267-0.273-0.455-1.106-0.658
			c-0.7-0.175-1.296-0.483-1.296-0.967c0-0.546,0.49-0.967,1.43-0.967c0.511,0,1.029,0.203,1.365,0.435l-0.28,0.371
			c-0.302-0.21-0.665-0.357-1.085-0.357c-0.639,0-0.842,0.225-0.842,0.49c0,0.28,0.421,0.448,1.037,0.603
			c0.918,0.231,1.359,0.497,1.359,1.016c0,0.554-0.54,1.016-1.514,1.016c-0.665,0-1.254-0.245-1.666-0.532L306.934,152.674z"/>
		<path d="M311.133,152.674c0.379,0.28,0.799,0.462,1.408,0.462s0.91-0.238,0.91-0.532c0-0.267-0.272-0.455-1.105-0.658
			c-0.701-0.175-1.297-0.483-1.297-0.967c0-0.546,0.49-0.967,1.43-0.967c0.512,0,1.029,0.203,1.365,0.435l-0.279,0.371
			c-0.302-0.21-0.666-0.357-1.086-0.357c-0.638,0-0.841,0.225-0.841,0.49c0,0.28,0.421,0.448,1.036,0.603
			c0.918,0.231,1.359,0.497,1.359,1.016c0,0.554-0.539,1.016-1.513,1.016c-0.665,0-1.254-0.245-1.667-0.532L311.133,152.674z"/>
		<path d="M317.582,151.343c-0.014-0.462-0.245-0.854-0.904-0.854c-0.44,0-0.875,0.21-1.189,0.406l-0.225-0.393
			c0.344-0.224,0.918-0.49,1.513-0.49c0.932,0,1.38,0.554,1.38,1.401v2.087h-0.469l-0.049-0.462h-0.021
			c-0.379,0.294-0.861,0.546-1.345,0.546c-0.638,0-1.155-0.357-1.155-0.967C315.117,151.854,315.824,151.482,317.582,151.343z
			 M316.426,153.122c0.386,0,0.771-0.183,1.156-0.505v-0.896c-1.457,0.119-1.905,0.406-1.905,0.854
			C315.677,152.961,316.034,153.122,316.426,153.122z"/>
		<path d="M319.814,153.367v-0.028c-0.183-0.098-0.351-0.273-0.351-0.561c0-0.217,0.147-0.462,0.406-0.637v-0.028
			c-0.23-0.175-0.42-0.477-0.42-0.883c0-0.742,0.617-1.219,1.338-1.219c0.196,0,0.357,0.028,0.504,0.084h1.408v0.441h-0.91
			c0.16,0.168,0.314,0.413,0.314,0.715c0,0.729-0.581,1.17-1.316,1.17c-0.176,0-0.385-0.043-0.574-0.127
			c-0.168,0.105-0.266,0.231-0.266,0.393c0,0.273,0.258,0.393,0.707,0.393h0.764c0.875,0,1.295,0.224,1.295,0.798
			c0,0.638-0.735,1.19-1.891,1.19c-0.994,0-1.568-0.343-1.568-0.945C319.254,153.851,319.449,153.577,319.814,153.367z
			 M320.865,154.67c0.792,0,1.282-0.351,1.282-0.7c0-0.322-0.26-0.414-0.777-0.414h-0.666c-0.196,0-0.371-0.014-0.519-0.056
			c-0.321,0.175-0.435,0.371-0.435,0.567C319.75,154.425,320.136,154.67,320.865,154.67z M321.573,151.23
			c0-0.476-0.352-0.798-0.785-0.798c-0.428,0-0.784,0.322-0.784,0.798c0,0.49,0.356,0.806,0.784,0.806
			C321.221,152.036,321.573,151.721,321.573,151.23z"/>
		<path d="M325.162,150.012c0.974,0,1.549,0.638,1.549,1.598c0,0.119-0.008,0.245-0.021,0.329h-2.662
			c0.028,0.721,0.561,1.184,1.303,1.184c0.399,0,0.722-0.119,1.037-0.315l0.203,0.378c-0.336,0.218-0.764,0.399-1.311,0.399
			c-1.008,0-1.827-0.665-1.827-1.779C323.433,150.691,324.28,150.012,325.162,150.012z M326.178,151.525
			c0-0.68-0.378-1.058-1.008-1.058c-0.554,0-1.059,0.392-1.148,1.058H326.178z"/>
	</g>
	<g enable-background="new    ">
		<path d="M28.309,41.676l-0.885-2.22h-4.98l-0.885,2.22h-1.425l4.02-10.005h1.545l4.035,10.005H28.309z M24.934,32.961l-2.13,5.385
			h4.245L24.934,32.961z"/>
		<path d="M31.055,40.161v-4.74h-1.2v-0.99h1.2v-1.979h1.125v1.979h1.47v0.99h-1.47v4.5c0,0.54,0.24,0.93,0.735,0.93
			c0.315,0,0.615-0.135,0.765-0.3l0.33,0.84c-0.285,0.271-0.69,0.465-1.35,0.465C31.595,41.855,31.055,41.241,31.055,40.161z"/>
		<path d="M34.82,38.046c0-2.1,1.38-3.795,3.585-3.795c2.205,0,3.584,1.695,3.584,3.795s-1.38,3.81-3.584,3.81
			C36.199,41.855,34.82,40.146,34.82,38.046z M40.804,38.046c0-1.47-0.855-2.79-2.4-2.79s-2.415,1.32-2.415,2.79
			c0,1.485,0.87,2.805,2.415,2.805S40.804,39.531,40.804,38.046z"/>
		<path d="M52.564,41.676v-4.92c0-0.915-0.405-1.5-1.335-1.5c-0.75,0-1.545,0.54-1.92,1.11v5.31h-1.125v-4.92
			c0-0.915-0.39-1.5-1.335-1.5c-0.735,0-1.515,0.54-1.905,1.125v5.295H43.82v-7.245h1.125v1.051c0.3-0.466,1.275-1.23,2.34-1.23
			c1.11,0,1.74,0.6,1.95,1.35c0.405-0.659,1.38-1.35,2.43-1.35c1.32,0,2.025,0.735,2.025,2.19v5.234H52.564z"/>
		<path d="M55.31,40.716l0.585-0.81c0.48,0.555,1.395,1.034,2.385,1.034c1.11,0,1.71-0.524,1.71-1.244
			c0-1.755-4.485-0.676-4.485-3.36c0-1.125,0.975-2.085,2.7-2.085c1.23,0,2.1,0.465,2.685,1.05l-0.525,0.78
			c-0.435-0.525-1.23-0.915-2.16-0.915c-0.99,0-1.604,0.495-1.604,1.14c0,1.59,4.484,0.54,4.484,3.36
			c0,1.215-0.975,2.189-2.85,2.189C57.05,41.855,56.045,41.496,55.31,40.716z"/>
	</g>
	<g enable-background="new    ">
		<path d="M21.17,130.5v-10.005h3.42c3.105,0,5.13,2.175,5.13,5.01c0,2.851-2.025,4.995-5.13,4.995H21.17z M28.429,125.505
			c0-2.159-1.365-3.899-3.84-3.899h-2.175v7.784h2.175C27.019,129.39,28.429,127.65,28.429,125.505z"/>
		<path d="M31.205,126.87c0-2.1,1.5-3.795,3.57-3.795c2.19,0,3.48,1.71,3.48,3.885v0.285H32.39c0.09,1.365,1.05,2.505,2.61,2.505
			c0.825,0,1.665-0.33,2.235-0.915l0.54,0.735c-0.72,0.72-1.695,1.109-2.88,1.109C32.75,130.68,31.205,129.135,31.205,126.87z
			 M34.76,124.005c-1.545,0-2.31,1.306-2.37,2.415h4.754C37.13,125.34,36.409,124.005,34.76,124.005z"/>
		<path d="M40.07,130.5v-7.245h1.125v1.17c0.585-0.765,1.425-1.319,2.415-1.319v1.154c-0.135-0.029-0.27-0.045-0.45-0.045
			c-0.69,0-1.635,0.57-1.965,1.155v5.13H40.07z"/>
		<path d="M44.824,121.471c0-0.42,0.345-0.766,0.75-0.766c0.42,0,0.765,0.346,0.765,0.766s-0.345,0.75-0.765,0.75
			C45.169,122.221,44.824,121.891,44.824,121.471z M45.019,130.5v-7.245h1.125v7.245H45.019z"/>
		<path d="M50.329,130.5l-3.015-7.245h1.215l2.415,5.94l2.4-5.94h1.23l-3.015,7.245H50.329z"/>
		<path d="M60.274,130.5v-0.825c-0.6,0.66-1.425,1.005-2.4,1.005c-1.23,0-2.535-0.824-2.535-2.399c0-1.62,1.305-2.385,2.535-2.385
			c0.99,0,1.815,0.314,2.4,0.989v-1.305c0-0.975-0.78-1.53-1.83-1.53c-0.87,0-1.575,0.315-2.22,1.006l-0.525-0.78
			c0.78-0.811,1.71-1.2,2.895-1.2c1.53,0,2.805,0.69,2.805,2.445v4.979H60.274z M60.274,128.97v-1.364
			c-0.435-0.601-1.2-0.9-1.995-0.9c-1.05,0-1.785,0.66-1.785,1.59c0,0.915,0.735,1.575,1.785,1.575
			C59.073,129.87,59.839,129.57,60.274,128.97z"/>
		<path d="M63.874,128.985v-4.74h-1.2v-0.99h1.2v-1.979h1.125v1.979h1.47v0.99h-1.47v4.5c0,0.54,0.24,0.93,0.735,0.93
			c0.315,0,0.615-0.135,0.765-0.3l0.33,0.84c-0.285,0.271-0.69,0.465-1.35,0.465C64.414,130.68,63.874,130.065,63.874,128.985z"/>
		<path d="M67.864,121.471c0-0.42,0.345-0.766,0.75-0.766c0.42,0,0.765,0.346,0.765,0.766s-0.345,0.75-0.765,0.75
			C68.209,122.221,67.864,121.891,67.864,121.471z M68.059,130.5v-7.245h1.125v7.245H68.059z"/>
		<path d="M71.014,126.87c0-2.1,1.38-3.795,3.585-3.795c2.205,0,3.584,1.695,3.584,3.795s-1.38,3.81-3.584,3.81
			C72.394,130.68,71.014,128.97,71.014,126.87z M76.999,126.87c0-1.47-0.855-2.79-2.4-2.79s-2.415,1.32-2.415,2.79
			c0,1.485,0.87,2.805,2.415,2.805S76.999,128.355,76.999,126.87z"/>
		<path d="M84.903,130.5v-4.74c0-1.274-0.645-1.68-1.62-1.68c-0.885,0-1.725,0.54-2.145,1.125v5.295h-1.125v-7.245h1.125v1.051
			c0.51-0.601,1.5-1.23,2.58-1.23c1.515,0,2.31,0.765,2.31,2.34v5.085H84.903z"/>
		<path d="M87.649,129.54l0.585-0.81c0.48,0.555,1.395,1.034,2.385,1.034c1.11,0,1.71-0.524,1.71-1.244
			c0-1.755-4.485-0.676-4.485-3.36c0-1.125,0.975-2.085,2.7-2.085c1.23,0,2.1,0.465,2.685,1.05l-0.525,0.78
			c-0.435-0.525-1.23-0.915-2.16-0.915c-0.99,0-1.604,0.495-1.604,1.14c0,1.59,4.484,0.54,4.484,3.36
			c0,1.215-0.975,2.189-2.85,2.189C89.388,130.68,88.384,130.32,87.649,129.54z"/>
	</g>
	<g enable-background="new    ">
		<path d="M26.96,215.332l-2.55-3.975h-1.995v3.975H21.17v-10.005h4.02c1.83,0,3.135,1.17,3.135,3.016c0,1.8-1.23,2.789-2.595,2.909
			l2.7,4.08H26.96z M27.034,208.343c0-1.125-0.81-1.905-1.995-1.905h-2.625v3.825h2.625
			C26.224,210.263,27.034,209.467,27.034,208.343z"/>
		<path d="M29.375,211.702c0-2.1,1.5-3.795,3.57-3.795c2.19,0,3.48,1.71,3.48,3.885v0.285H30.56c0.09,1.365,1.05,2.505,2.61,2.505
			c0.825,0,1.665-0.33,2.235-0.915l0.54,0.735c-0.72,0.72-1.695,1.109-2.88,1.109C30.92,215.512,29.375,213.967,29.375,211.702z
			 M32.929,208.837c-1.545,0-2.31,1.306-2.37,2.415h4.754C35.3,210.172,34.579,208.837,32.929,208.837z"/>
		<path d="M42.769,215.332v-0.825c-0.6,0.66-1.425,1.005-2.4,1.005c-1.23,0-2.535-0.824-2.535-2.399c0-1.62,1.305-2.385,2.535-2.385
			c0.99,0,1.815,0.314,2.4,0.989v-1.305c0-0.975-0.78-1.53-1.83-1.53c-0.87,0-1.575,0.315-2.22,1.006l-0.525-0.78
			c0.78-0.811,1.71-1.2,2.895-1.2c1.53,0,2.805,0.69,2.805,2.445v4.979H42.769z M42.769,213.802v-1.364
			c-0.435-0.601-1.2-0.9-1.995-0.9c-1.05,0-1.785,0.66-1.785,1.59c0,0.915,0.735,1.575,1.785,1.575
			C41.569,214.702,42.334,214.402,42.769,213.802z"/>
		<path d="M45.724,211.702c0-2.145,1.455-3.795,3.615-3.795c1.32,0,2.1,0.54,2.655,1.26l-0.75,0.69
			c-0.48-0.66-1.095-0.945-1.845-0.945c-1.545,0-2.505,1.186-2.505,2.79s0.96,2.805,2.505,2.805c0.75,0,1.365-0.3,1.845-0.944
			l0.75,0.689c-0.555,0.72-1.335,1.26-2.655,1.26C47.179,215.512,45.724,213.862,45.724,211.702z"/>
		<path d="M53.794,213.817v-4.74h-1.2v-0.99h1.2v-1.979h1.125v1.979h1.47v0.99h-1.47v4.5c0,0.54,0.24,0.93,0.735,0.93
			c0.315,0,0.615-0.135,0.765-0.3l0.33,0.84c-0.285,0.271-0.69,0.465-1.35,0.465C54.334,215.512,53.794,214.897,53.794,213.817z"/>
		<path d="M57.559,211.702c0-2.1,1.38-3.795,3.585-3.795c2.205,0,3.584,1.695,3.584,3.795s-1.38,3.81-3.584,3.81
			C58.939,215.512,57.559,213.802,57.559,211.702z M63.544,211.702c0-1.47-0.855-2.79-2.4-2.79s-2.415,1.32-2.415,2.79
			c0,1.485,0.87,2.805,2.415,2.805S63.544,213.188,63.544,211.702z"/>
		<path d="M66.559,215.332v-7.245h1.125v1.17c0.585-0.765,1.425-1.319,2.415-1.319v1.154c-0.135-0.029-0.27-0.045-0.45-0.045
			c-0.69,0-1.635,0.57-1.965,1.155v5.13H66.559z"/>
		<path d="M70.879,214.372l0.585-0.81c0.48,0.555,1.395,1.034,2.385,1.034c1.11,0,1.71-0.524,1.71-1.244
			c0-1.755-4.485-0.676-4.485-3.36c0-1.125,0.975-2.085,2.7-2.085c1.23,0,2.1,0.465,2.685,1.05l-0.525,0.78
			c-0.435-0.525-1.23-0.915-2.16-0.915c-0.99,0-1.604,0.495-1.604,1.14c0,1.59,4.484,0.54,4.484,3.36
			c0,1.215-0.975,2.189-2.85,2.189C72.618,215.512,71.614,215.152,70.879,214.372z"/>
	</g>
	<g>
		<path fill="#B20000" d="M232.554,197.143c0-0.49-0.009-0.911-0.034-1.298h0.661l0.026,0.816h0.034
			c0.188-0.559,0.645-0.91,1.151-0.91c0.086,0,0.146,0.008,0.215,0.025v0.713c-0.078-0.018-0.155-0.025-0.258-0.025
			c-0.533,0-0.911,0.403-1.014,0.971c-0.018,0.103-0.035,0.223-0.035,0.352v2.217h-0.747V197.143z"/>
		<path fill="#B20000" d="M235.7,198.062c0.018,1.022,0.67,1.443,1.427,1.443c0.541,0,0.867-0.095,1.15-0.215l0.129,0.541
			c-0.266,0.12-0.722,0.258-1.383,0.258c-1.28,0-2.045-0.842-2.045-2.096c0-1.255,0.739-2.242,1.95-2.242
			c1.357,0,1.719,1.193,1.719,1.958c0,0.155-0.018,0.275-0.026,0.353H235.7z M237.917,197.521c0.009-0.481-0.198-1.229-1.048-1.229
			c-0.765,0-1.1,0.704-1.16,1.229H237.917z"/>
		<path fill="#B20000" d="M241.889,200.003l-0.061-0.524h-0.025c-0.232,0.327-0.679,0.619-1.271,0.619
			c-0.842,0-1.271-0.593-1.271-1.194c0-1.005,0.894-1.555,2.5-1.546v-0.086c0-0.344-0.095-0.963-0.945-0.963
			c-0.387,0-0.79,0.121-1.082,0.31l-0.172-0.498c0.344-0.224,0.842-0.369,1.365-0.369c1.271,0,1.581,0.867,1.581,1.7v1.556
			c0,0.36,0.018,0.713,0.068,0.996H241.889z M241.777,197.881c-0.824-0.017-1.761,0.129-1.761,0.937
			c0,0.489,0.326,0.722,0.713,0.722c0.541,0,0.885-0.344,1.005-0.696c0.026-0.077,0.043-0.163,0.043-0.24V197.881z"/>
		<path fill="#B20000" d="M246.694,199.849c-0.197,0.103-0.636,0.24-1.194,0.24c-1.254,0-2.07-0.851-2.07-2.122
			c0-1.28,0.877-2.208,2.233-2.208c0.447,0,0.843,0.112,1.049,0.215l-0.172,0.584c-0.181-0.103-0.464-0.197-0.877-0.197
			c-0.953,0-1.469,0.704-1.469,1.572c0,0.962,0.619,1.555,1.443,1.555c0.43,0,0.713-0.111,0.928-0.206L246.694,199.849z"/>
		<path fill="#B20000" d="M248.604,194.651v1.193h1.082v0.576h-1.082v2.242c0,0.515,0.146,0.808,0.566,0.808
			c0.198,0,0.344-0.026,0.438-0.052l0.034,0.566c-0.146,0.061-0.378,0.104-0.67,0.104c-0.353,0-0.636-0.111-0.816-0.318
			c-0.215-0.223-0.292-0.593-0.292-1.082v-2.268h-0.645v-0.576h0.645v-0.996L248.604,194.651z"/>
		<path fill="#B20000" d="M251.38,194.677c0.009,0.258-0.18,0.464-0.48,0.464c-0.267,0-0.456-0.206-0.456-0.464
			c0-0.267,0.198-0.473,0.473-0.473C251.2,194.204,251.38,194.41,251.38,194.677z M250.538,200.003v-4.158h0.756v4.158H250.538z"/>
		<path fill="#B20000" d="M256.313,197.89c0,1.538-1.065,2.208-2.07,2.208c-1.125,0-1.993-0.825-1.993-2.14
			c0-1.392,0.911-2.207,2.062-2.207C255.505,195.751,256.313,196.618,256.313,197.89z M253.014,197.933
			c0,0.91,0.524,1.598,1.263,1.598c0.722,0,1.263-0.679,1.263-1.615c0-0.704-0.352-1.598-1.245-1.598
			S253.014,197.143,253.014,197.933z"/>
		<path fill="#B20000" d="M257.27,196.971c0-0.43-0.009-0.782-0.034-1.126h0.67l0.043,0.688h0.018
			c0.206-0.396,0.687-0.781,1.374-0.781c0.576,0,1.469,0.343,1.469,1.77v2.482h-0.756v-2.396c0-0.67-0.249-1.229-0.962-1.229
			c-0.498,0-0.885,0.352-1.014,0.772c-0.034,0.095-0.052,0.224-0.052,0.353v2.5h-0.756V196.971z"/>
		<path fill="#B20000" d="M261.939,199.229c0.223,0.146,0.618,0.301,0.996,0.301c0.55,0,0.808-0.274,0.808-0.618
			c0-0.361-0.215-0.559-0.773-0.765c-0.747-0.267-1.1-0.679-1.1-1.177c0-0.67,0.541-1.22,1.435-1.22c0.421,0,0.791,0.12,1.022,0.257
			l-0.188,0.55c-0.164-0.103-0.464-0.24-0.851-0.24c-0.447,0-0.696,0.258-0.696,0.567c0,0.344,0.249,0.498,0.79,0.704
			c0.722,0.275,1.092,0.636,1.092,1.254c0,0.73-0.567,1.246-1.556,1.246c-0.455,0-0.876-0.111-1.168-0.283L261.939,199.229z"/>
	</g>
</g>
<g id="Layer_2_1_">
	<path fill="none" stroke="#BE1E2D" stroke-width="2" stroke-miterlimit="10" stroke-dasharray="2" d="M321.047,219.359
		c0,4.992-4.635,9.04-10.352,9.04H189.639c-5.717,0-10.352-4.048-10.352-9.04v-6.067c0-4.994,4.635-9.042,10.352-9.042h121.057
		c5.717,0,10.352,4.048,10.352,9.042V219.359L321.047,219.359z"/>
</g>
</svg>
