<?xml version="1.0" encoding="utf-8"?>
<!-- Generator: Adobe Illustrator 16.0.4, SVG Export Plug-In . SVG Version: 6.00 Build 0)  -->
<!DOCTYPE svg PUBLIC "-//W3C//DTD SVG 1.1//EN" "http://www.w3.org/Graphics/SVG/1.1/DTD/svg11.dtd">
<svg version="1.1" xmlns="http://www.w3.org/2000/svg" xmlns:xlink="http://www.w3.org/1999/xlink" x="0px" y="0px" width="358.5px"
	 height="245px" viewBox="0 0 358.5 245" enable-background="new 0 0 358.5 245" xml:space="preserve">
<g id="Layer_4">
	
		<line fill="none" stroke="#A7A9AC" stroke-width="0.5" stroke-miterlimit="10" stroke-dasharray="1" x1="13.5" y1="69" x2="346" y2="69"/>
	
		<line fill="none" stroke="#A7A9AC" stroke-width="0.5" stroke-miterlimit="10" stroke-dasharray="1" x1="13.5" y1="178.173" x2="346" y2="178.173"/>
</g>
<g id="Layer_2">
	<g>
		<line fill="#FFFFFF" x1="183.333" y1="53.5" x2="183.333" y2="86"/>
		<g>
			<line fill="none" stroke="#1C75BC" stroke-miterlimit="10" x1="183.333" y1="53.5" x2="183.333" y2="82.68"/>
			<g>
				<path fill="#1C75BC" d="M183.333,86c-0.58-1.562-1.568-3.5-2.616-4.701l2.616,0.946l2.615-0.946
					C184.901,82.5,183.912,84.438,183.333,86z"/>
			</g>
		</g>
	</g>
	<g>
		<line fill="#FFFFFF" x1="271.25" y1="52.23" x2="271.25" y2="138.333"/>
		<g>
			<line fill="none" stroke="#1C75BC" stroke-miterlimit="10" x1="271.25" y1="52.23" x2="271.25" y2="135.014"/>
			<g>
				<path fill="#1C75BC" d="M271.25,138.333c-0.58-1.562-1.568-3.5-2.616-4.701l2.616,0.946l2.615-0.946
					C272.818,134.833,271.829,136.771,271.25,138.333z"/>
			</g>
		</g>
	</g>
	<g>
		<line fill="#FFFFFF" x1="196.5" y1="111.345" x2="213.25" y2="140"/>
		<g>
			<line fill="none" stroke="#1C75BC" stroke-miterlimit="10" x1="196.5" y1="111.345" x2="211.575" y2="137.134"/>
			<g>
				<path fill="#1C75BC" d="M213.25,140c-1.289-1.056-3.12-2.23-4.631-2.738l2.736-0.503l1.78-2.137
					C212.837,136.187,212.961,138.359,213.25,140z"/>
			</g>
		</g>
	</g>
	<g>
		<line fill="#FFFFFF" x1="250.167" y1="163.345" x2="250.167" y2="193"/>
		<g>
			<line fill="none" stroke="#BE1E2D" stroke-miterlimit="10" x1="250.167" y1="163.345" x2="250.167" y2="189.681"/>
			<g>
				<path fill="#BE1E2D" d="M250.167,193c-0.58-1.562-1.568-3.5-2.616-4.701l2.616,0.946l2.615-0.946
					C251.735,189.5,250.746,191.438,250.167,193z"/>
			</g>
		</g>
	</g>
</g>
<g id="Layer_1">
	<path fill="#FFFFFF" stroke="#BE1E2D" stroke-width="2" stroke-miterlimit="10" stroke-dasharray="2" d="M332.334,215
		c0,6.627-5.373,12-12,12H180c-6.627,0-12-5.373-12-12v-8.055c0-6.629,5.373-12.001,12-12.001h140.334c6.627,0,12,5.372,12,12.001
		V215z"/>
	<path fill="#FFFFFF" stroke="#1C75BC" stroke-miterlimit="10" d="M292.299,152.345c0,6.627-5.373,12-12,12h-60.264
		c-6.627,0-12-5.373-12-12V151c0-6.627,5.373-12,12-12h60.264c6.627,0,12,5.373,12,12V152.345z"/>
	<path fill="#FFFFFF" stroke="#1C75BC" stroke-miterlimit="10" d="M205.299,99.345c0,6.627-5.373,12-12,12h-22.264
		c-6.627,0-12-5.373-12-12V98c0-6.627,5.373-12,12-12h22.264c6.627,0,12,5.373,12,12V99.345z"/>
	<path fill="#FFFFFF" stroke="#000000" stroke-width="3" stroke-miterlimit="10" d="M201.965,40.23c0,6.627-5.373,12-12,12h-13.264
		c-6.627,0-12-5.373-12-12v-1.346c0-6.627,5.373-12,12-12h13.264c6.627,0,12,5.373,12,12V40.23z"/>
	<path fill="#FFFFFF" stroke="#000000" stroke-width="3" stroke-miterlimit="10" d="M294.459,40.23c0,6.627-5.373,12-12.001,12
		h-25.264c-6.627,0-12-5.373-12-12v-1.346c0-6.627,5.373-12,12-12h25.264c6.628,0,12.001,5.373,12.001,12V40.23z"/>
</g>
<g id="Layer_3">
	<text transform="matrix(1 0 0 1 180.7822 42.4766)" font-family="'ProximaNova-Regular'" font-size="9">fr</text>
	<text transform="matrix(1 0 0 1 254.5459 42.4766)" font-family="'ProximaNova-Regular'" font-size="9">Étienne</text>
	<text transform="matrix(1 0 0 1 167 101.333)" font-family="'ProximaNova-Regular'" font-size="9">Bonjour</text>
	<text transform="matrix(1 0 0 1 217.4307 154.2632)" font-family="'ProximaNova-Regular'" font-size="9">Bonjour, Étienne!</text>
	<text transform="matrix(1 0 0 1 176.6157 214.332)"><tspan x="0" y="0" font-family="'SourceCodePro-Regular'" font-size="9">console.log(&quot;</tspan><tspan x="70.199" y="0" font-family="'ProximaNova-Regular'" font-size="9">Bonjour, Etienne!</tspan><tspan x="137.375" y="0" font-family="'SourceCodePro-Regular'" font-size="9">&quot;)</tspan><tspan x="148.173" y="0" font-family="'ProximaNova-Regular'" font-size="9">;</tspan></text>
	<text transform="matrix(1 0 0 1 160.0342 20.5)" font-family="'SourceCodePro-Regular'" font-size="7">countryCode</text>
	<text transform="matrix(1 0 0 1 261.75 20.5)" font-family="'SourceCodePro-Regular'" font-size="7">name</text>
	<text transform="matrix(1 0 0 1 120.5 101.333)" font-family="'SourceCodePro-Regular'" font-size="7">greeting</text>
	<text transform="matrix(1 0 0 1 297.75 153.5)" font-family="'SourceCodePro-Regular'" font-size="7">message</text>
	<text transform="matrix(1 0 0 1 20 41.6758)" font-family="'ProximaNova-Regular'" font-size="15">Atoms</text>
	<text transform="matrix(1 0 0 1 20 130.5)" font-family="'ProximaNova-Regular'" font-size="15">Derivations</text>
	<text transform="matrix(1 0 0 1 20 215.332)" font-family="'ProximaNova-Regular'" font-size="15">Reactions</text>
</g>
</svg>
