<?xml version="1.0" encoding="utf-8"?>
<!-- Generator: Adobe Illustrator 16.0.4, SVG Export Plug-In . SVG Version: 6.00 Build 0)  -->
<!DOCTYPE svg PUBLIC "-//W3C//DTD SVG 1.1//EN" "http://www.w3.org/Graphics/SVG/1.1/DTD/svg11.dtd">
<svg version="1.1" xmlns="http://www.w3.org/2000/svg" xmlns:xlink="http://www.w3.org/1999/xlink" x="0px" y="0px" width="358.5px"
	 height="245px" viewBox="0 0 358.5 245" enable-background="new 0 0 358.5 245" xml:space="preserve">
<g id="Layer_4">
	
		<line fill="none" stroke="#A7A9AC" stroke-width="0.5" stroke-miterlimit="10" stroke-dasharray="1" x1="13.5" y1="69" x2="346" y2="69"/>
	
		<line fill="none" stroke="#A7A9AC" stroke-width="0.5" stroke-miterlimit="10" stroke-dasharray="1" x1="13.5" y1="178.173" x2="346" y2="178.173"/>
</g>
<g id="Layer_2">
	<g>
		<line fill="#FFFFFF" x1="183.333" y1="53.5" x2="183.333" y2="86"/>
		<g>
			<line fill="none" stroke="#1C75BC" stroke-miterlimit="10" x1="183.333" y1="53.5" x2="183.333" y2="82.68"/>
			<g>
				<path fill="#1C75BC" d="M183.333,86c-0.58-1.562-1.568-3.5-2.616-4.701l2.616,0.946l2.615-0.946
					C184.901,82.5,183.912,84.438,183.333,86z"/>
			</g>
		</g>
	</g>
	<g>
		<line fill="#FFFFFF" x1="271.25" y1="52.23" x2="271.25" y2="138.333"/>
		<g>
			<line fill="none" stroke="#1C75BC" stroke-miterlimit="10" x1="271.25" y1="52.23" x2="271.25" y2="135.014"/>
			<g>
				<path fill="#1C75BC" d="M271.25,138.333c-0.58-1.562-1.568-3.5-2.616-4.701l2.616,0.946l2.615-0.946
					C272.818,134.833,271.829,136.771,271.25,138.333z"/>
			</g>
		</g>
	</g>
	<g>
		<line fill="#FFFFFF" x1="196.5" y1="111.345" x2="213.25" y2="140"/>
		<g>
			<line fill="none" stroke="#1C75BC" stroke-miterlimit="10" x1="196.5" y1="111.345" x2="211.575" y2="137.134"/>
			<g>
				<path fill="#1C75BC" d="M213.25,140c-1.289-1.056-3.12-2.23-4.631-2.738l2.736-0.503l1.78-2.137
					C212.837,136.187,212.961,138.359,213.25,140z"/>
			</g>
		</g>
	</g>
	<g>
		<line fill="#FFFFFF" x1="250.167" y1="163.345" x2="250.167" y2="193"/>
		<g>
			<line fill="none" stroke="#BE1E2D" stroke-miterlimit="10" x1="250.167" y1="163.345" x2="250.167" y2="189.681"/>
			<g>
				<path fill="#BE1E2D" d="M250.167,193c-0.58-1.562-1.568-3.5-2.616-4.701l2.616,0.946l2.615-0.946
					C251.735,189.5,250.746,191.438,250.167,193z"/>
			</g>
		</g>
	</g>
</g>
<g id="Layer_1">
	<path fill="#FFFFFF" stroke="#BE1E2D" stroke-width="2" stroke-miterlimit="10" stroke-dasharray="2" d="M332.334,215
		c0,6.627-5.373,12-12,12H180c-6.627,0-12-5.373-12-12v-8.055c0-6.629,5.373-12.001,12-12.001h140.334c6.627,0,12,5.372,12,12.001
		V215z"/>
	<path fill="#FFFFFF" stroke="#1C75BC" stroke-miterlimit="10" d="M292.299,152.345c0,6.627-5.373,12-12,12h-60.264
		c-6.627,0-12-5.373-12-12V151c0-6.627,5.373-12,12-12h60.264c6.627,0,12,5.373,12,12V152.345z"/>
	<path fill="#FFFFFF" stroke="#1C75BC" stroke-miterlimit="10" d="M205.299,99.345c0,6.627-5.373,12-12,12h-22.264
		c-6.627,0-12-5.373-12-12V98c0-6.627,5.373-12,12-12h22.264c6.627,0,12,5.373,12,12V99.345z"/>
	<path fill="#FFFFFF" stroke="#000000" stroke-width="3" stroke-miterlimit="10" d="M201.965,40.23c0,6.627-5.373,12-12,12h-13.264
		c-6.627,0-12-5.373-12-12v-1.346c0-6.627,5.373-12,12-12h13.264c6.627,0,12,5.373,12,12V40.23z"/>
	<path fill="#FFFFFF" stroke="#000000" stroke-width="3" stroke-miterlimit="10" d="M294.459,40.23c0,6.627-5.373,12-12.001,12
		h-25.264c-6.627,0-12-5.373-12-12v-1.346c0-6.627,5.373-12,12-12h25.264c6.628,0,12.001,5.373,12.001,12V40.23z"/>
</g>
<g id="Layer_3">
	<g>
		<path d="M181.646,42.477v-3.754h-0.72v-0.594h0.72v-0.333c0-0.892,0.486-1.414,1.26-1.414c0.342,0,0.648,0.081,0.918,0.333
			l-0.279,0.441c-0.144-0.126-0.315-0.216-0.54-0.216c-0.441,0-0.684,0.306-0.684,0.855v0.333h0.882v0.594h-0.882v3.754H181.646z"/>
		<path d="M184.004,42.477v-4.348h0.675v0.702c0.351-0.459,0.855-0.792,1.449-0.792v0.693c-0.081-0.018-0.162-0.027-0.27-0.027
			c-0.414,0-0.981,0.342-1.179,0.693v3.079H184.004z"/>
	</g>
	<g>
		<path d="M255.248,42.477v-6.005h3.934v0.667h-3.187v1.936h3.124v0.666h-3.124v2.071h3.187v0.666H255.248z M257.21,35.968h-0.513
			l1.332-1.296h0.702L257.21,35.968z"/>
		<path d="M260.477,41.567v-2.845h-0.72v-0.594h0.72V36.94h0.675v1.188h0.882v0.594h-0.882v2.701c0,0.324,0.144,0.558,0.441,0.558
			c0.189,0,0.369-0.081,0.459-0.18l0.198,0.504c-0.171,0.162-0.415,0.279-0.811,0.279C260.801,42.584,260.477,42.215,260.477,41.567
			z"/>
		<path d="M262.871,37.057c0-0.252,0.207-0.459,0.45-0.459c0.252,0,0.459,0.207,0.459,0.459c0,0.252-0.207,0.45-0.459,0.45
			C263.078,37.507,262.871,37.309,262.871,37.057z M262.988,42.477v-4.348h0.675v4.348H262.988z"/>
		<path d="M264.761,40.298c0-1.26,0.9-2.278,2.143-2.278c1.314,0,2.088,1.026,2.088,2.332v0.171h-3.52
			c0.054,0.819,0.63,1.503,1.566,1.503c0.495,0,1-0.198,1.341-0.549l0.324,0.441c-0.432,0.432-1.017,0.666-1.729,0.666
			C265.688,42.584,264.761,41.657,264.761,40.298z M266.894,38.579c-0.927,0-1.386,0.783-1.422,1.449h2.854
			C268.316,39.38,267.884,38.579,266.894,38.579z"/>
		<path d="M273.014,42.477v-2.845c0-0.765-0.387-1.008-0.972-1.008c-0.531,0-1.035,0.324-1.287,0.675v3.178h-0.675v-4.348h0.675
			v0.63c0.306-0.36,0.9-0.738,1.548-0.738c0.909,0,1.386,0.459,1.386,1.405v3.052H273.014z"/>
		<path d="M277.973,42.477v-2.845c0-0.765-0.387-1.008-0.972-1.008c-0.531,0-1.035,0.324-1.287,0.675v3.178h-0.675v-4.348h0.675
			v0.63c0.306-0.36,0.9-0.738,1.548-0.738c0.909,0,1.386,0.459,1.386,1.405v3.052H277.973z"/>
		<path d="M279.746,40.298c0-1.26,0.9-2.278,2.143-2.278c1.314,0,2.088,1.026,2.088,2.332v0.171h-3.52
			c0.054,0.819,0.63,1.503,1.566,1.503c0.495,0,1-0.198,1.341-0.549l0.324,0.441c-0.432,0.432-1.017,0.666-1.729,0.666
			C280.673,42.584,279.746,41.657,279.746,40.298z M281.879,38.579c-0.927,0-1.386,0.783-1.422,1.449h2.854
			C283.301,39.38,282.869,38.579,281.879,38.579z"/>
	</g>
	<g>
		<path d="M167.702,101.333v-6.005h2.674c1.044,0,1.684,0.63,1.684,1.531c0,0.756-0.504,1.26-1.053,1.377
			c0.639,0.099,1.17,0.756,1.17,1.477c0,0.963-0.639,1.621-1.738,1.621H167.702z M171.285,96.967c0-0.54-0.36-0.972-1.035-0.972
			h-1.801v1.936h1.801C170.925,97.93,171.285,97.516,171.285,96.967z M171.402,99.631c0-0.549-0.378-1.035-1.116-1.035h-1.837v2.071
			h1.837C170.988,100.667,171.402,100.271,171.402,99.631z"/>
		<path d="M173.084,99.154c0-1.26,0.828-2.278,2.151-2.278s2.152,1.018,2.152,2.278s-0.829,2.287-2.152,2.287
			S173.084,100.415,173.084,99.154z M176.676,99.154c0-0.882-0.513-1.674-1.44-1.674s-1.449,0.792-1.449,1.674
			c0,0.891,0.522,1.684,1.449,1.684S176.676,100.045,176.676,99.154z"/>
		<path d="M181.419,101.333v-2.845c0-0.765-0.387-1.008-0.972-1.008c-0.531,0-1.035,0.324-1.287,0.675v3.178h-0.675v-4.348h0.675
			v0.63c0.306-0.36,0.9-0.738,1.548-0.738c0.909,0,1.386,0.459,1.386,1.405v3.052H181.419z"/>
		<path d="M181.877,102.773l0.243-0.513c0.153,0.153,0.352,0.279,0.622,0.279c0.405,0,0.702-0.234,0.702-0.783v-4.771h0.675v4.771
			c0,0.855-0.459,1.341-1.288,1.341C182.39,103.098,182.156,102.99,181.877,102.773z M183.326,95.914
			c0-0.252,0.207-0.459,0.45-0.459c0.252,0,0.459,0.207,0.459,0.459c0,0.252-0.207,0.45-0.459,0.45
			C183.533,96.364,183.326,96.166,183.326,95.914z"/>
		<path d="M185.216,99.154c0-1.26,0.828-2.278,2.151-2.278s2.152,1.018,2.152,2.278s-0.829,2.287-2.152,2.287
			S185.216,100.415,185.216,99.154z M188.808,99.154c0-0.882-0.513-1.674-1.44-1.674s-1.449,0.792-1.449,1.674
			c0,0.891,0.522,1.684,1.449,1.684S188.808,100.045,188.808,99.154z"/>
		<path d="M193.551,101.333v-0.612c-0.333,0.378-0.9,0.72-1.548,0.72c-0.909,0-1.386-0.441-1.386-1.386v-3.07h0.675v2.863
			c0,0.765,0.387,0.99,0.972,0.99c0.531,0,1.035-0.306,1.287-0.657v-3.196h0.675v4.348H193.551z"/>
		<path d="M195.575,101.333v-4.348h0.675v0.702c0.351-0.459,0.855-0.792,1.449-0.792v0.693c-0.081-0.018-0.162-0.027-0.27-0.027
			c-0.414,0-0.981,0.342-1.179,0.693v3.079H195.575z"/>
	</g>
	<g>
		<path d="M218.133,154.263v-6.005h2.674c1.044,0,1.684,0.63,1.684,1.531c0,0.756-0.504,1.26-1.053,1.377
			c0.639,0.099,1.17,0.756,1.17,1.476c0,0.963-0.64,1.621-1.738,1.621H218.133z M221.716,149.897c0-0.54-0.36-0.972-1.035-0.972
			h-1.801v1.936h1.801C221.356,150.86,221.716,150.446,221.716,149.897z M221.833,152.562c0-0.549-0.378-1.035-1.116-1.035h-1.837
			v2.071h1.837C221.419,153.597,221.833,153.201,221.833,152.562z"/>
		<path d="M223.515,152.084c0-1.26,0.828-2.278,2.151-2.278s2.152,1.018,2.152,2.278s-0.829,2.287-2.152,2.287
			S223.515,153.345,223.515,152.084z M227.107,152.084c0-0.882-0.513-1.674-1.44-1.674s-1.449,0.792-1.449,1.674
			c0,0.891,0.522,1.684,1.449,1.684S227.107,152.976,227.107,152.084z"/>
		<path d="M231.85,154.263v-2.845c0-0.765-0.387-1.008-0.972-1.008c-0.531,0-1.035,0.324-1.287,0.675v3.178h-0.675v-4.348h0.675
			v0.63c0.306-0.36,0.9-0.738,1.548-0.738c0.909,0,1.387,0.459,1.387,1.405v3.052H231.85z"/>
		<path d="M232.307,155.704l0.243-0.513c0.153,0.153,0.352,0.279,0.621,0.279c0.405,0,0.702-0.234,0.702-0.783v-4.771h0.676v4.771
			c0,0.855-0.459,1.341-1.287,1.341C232.82,156.028,232.586,155.919,232.307,155.704z M233.757,148.844
			c0-0.252,0.207-0.459,0.449-0.459c0.253,0,0.46,0.207,0.46,0.459c0,0.252-0.207,0.45-0.46,0.45
			C233.964,149.293,233.757,149.096,233.757,148.844z"/>
		<path d="M235.646,152.084c0-1.26,0.828-2.278,2.152-2.278c1.323,0,2.151,1.018,2.151,2.278s-0.828,2.287-2.151,2.287
			C236.475,154.371,235.646,153.345,235.646,152.084z M239.239,152.084c0-0.882-0.514-1.674-1.44-1.674
			c-0.928,0-1.45,0.792-1.45,1.674c0,0.891,0.522,1.684,1.45,1.684C238.726,153.768,239.239,152.976,239.239,152.084z"/>
		<path d="M243.981,154.263v-0.612c-0.333,0.378-0.9,0.72-1.549,0.72c-0.909,0-1.387-0.441-1.387-1.386v-3.07h0.676v2.863
			c0,0.765,0.387,0.99,0.972,0.99c0.531,0,1.036-0.306,1.288-0.657v-3.196h0.675v4.348H243.981z"/>
		<path d="M246.005,154.263v-4.348h0.676v0.702c0.351-0.459,0.855-0.792,1.449-0.792v0.693c-0.081-0.018-0.162-0.027-0.271-0.027
			c-0.414,0-0.98,0.342-1.179,0.693v3.079H246.005z"/>
		<path d="M248.4,155.407l-0.334-0.279c0.288-0.189,0.55-0.54,0.586-0.837c-0.019,0.009-0.081,0.018-0.126,0.018
			c-0.252,0-0.433-0.189-0.433-0.459c0-0.261,0.207-0.486,0.478-0.486c0.297,0,0.566,0.252,0.566,0.685
			C249.138,154.596,248.814,155.109,248.4,155.407z"/>
		<path d="M252.647,154.263v-6.005h3.935v0.667h-3.188v1.936h3.124v0.666h-3.124v2.071h3.188v0.666H252.647z M254.61,147.754h-0.514
			l1.333-1.296h0.702L254.61,147.754z"/>
		<path d="M257.877,153.354v-2.845h-0.721v-0.594h0.721v-1.188h0.675v1.188h0.883v0.594h-0.883v2.701
			c0,0.324,0.145,0.558,0.441,0.558c0.188,0,0.369-0.081,0.459-0.18l0.198,0.504c-0.171,0.162-0.414,0.279-0.811,0.279
			C258.201,154.371,257.877,154.002,257.877,153.354z"/>
		<path d="M260.271,148.844c0-0.252,0.207-0.459,0.449-0.459c0.253,0,0.46,0.207,0.46,0.459c0,0.252-0.207,0.45-0.46,0.45
			C260.478,149.293,260.271,149.096,260.271,148.844z M260.387,154.263v-4.348h0.676v4.348H260.387z"/>
		<path d="M262.16,152.084c0-1.26,0.9-2.278,2.143-2.278c1.314,0,2.089,1.026,2.089,2.332v0.171h-3.52
			c0.054,0.819,0.63,1.503,1.566,1.503c0.495,0,0.999-0.198,1.341-0.549l0.324,0.441c-0.432,0.432-1.018,0.666-1.729,0.666
			C263.088,154.371,262.16,153.444,262.16,152.084z M264.294,150.365c-0.927,0-1.387,0.783-1.422,1.449h2.854
			C265.717,151.167,265.284,150.365,264.294,150.365z"/>
		<path d="M270.414,154.263v-2.845c0-0.765-0.388-1.008-0.973-1.008c-0.531,0-1.035,0.324-1.287,0.675v3.178h-0.676v-4.348h0.676
			v0.63c0.306-0.36,0.9-0.738,1.548-0.738c0.91,0,1.387,0.459,1.387,1.405v3.052H270.414z"/>
		<path d="M275.373,154.263v-2.845c0-0.765-0.388-1.008-0.973-1.008c-0.531,0-1.035,0.324-1.287,0.675v3.178h-0.676v-4.348h0.676
			v0.63c0.306-0.36,0.9-0.738,1.548-0.738c0.91,0,1.387,0.459,1.387,1.405v3.052H275.373z"/>
		<path d="M277.145,152.084c0-1.26,0.9-2.278,2.143-2.278c1.314,0,2.089,1.026,2.089,2.332v0.171h-3.52
			c0.054,0.819,0.63,1.503,1.566,1.503c0.495,0,0.999-0.198,1.341-0.549l0.324,0.441c-0.432,0.432-1.018,0.666-1.729,0.666
			C278.072,154.371,277.145,153.444,277.145,152.084z M279.278,150.365c-0.927,0-1.387,0.783-1.422,1.449h2.854
			C280.701,151.167,280.269,150.365,279.278,150.365z"/>
		<path d="M282.328,153.858c0-0.27,0.226-0.495,0.495-0.495c0.271,0,0.495,0.225,0.495,0.495c0,0.261-0.225,0.495-0.495,0.495
			C282.554,154.353,282.328,154.119,282.328,153.858z M282.544,152.58l-0.144-4.321h0.846l-0.144,4.321H282.544z"/>
	</g>
	<g>
		<path d="M179.776,209.85c0.711,0,1.233,0.287,1.593,0.639L181,210.965c-0.36-0.314-0.738-0.504-1.198-0.504
			c-1.008,0-1.701,0.686-1.701,1.693c0,0.998,0.676,1.674,1.684,1.674c0.54,0,0.99-0.242,1.359-0.549l0.324,0.477
			c-0.478,0.434-1.09,0.686-1.737,0.686c-1.369,0-2.396-0.838-2.396-2.287C177.335,210.686,178.453,209.85,179.776,209.85z"/>
		<path d="M184.717,209.85c1.152,0,2.16,0.836,2.16,2.305c0,1.449-1.008,2.287-2.16,2.287s-2.161-0.838-2.161-2.287
			C182.556,210.686,183.565,209.85,184.717,209.85z M184.717,213.828c0.837,0,1.396-0.676,1.396-1.674
			c0-1.008-0.559-1.693-1.396-1.693c-0.838,0-1.396,0.686-1.396,1.693C183.322,213.152,183.879,213.828,184.717,213.828z"/>
		<path d="M188.252,209.957h0.612l0.063,0.748h0.036c0.459-0.486,0.963-0.855,1.647-0.855c1.035,0,1.512,0.611,1.512,1.764v2.719
			h-0.738v-2.619c0-0.828-0.288-1.225-1.008-1.225c-0.522,0-0.873,0.262-1.387,0.793v3.051h-0.738V209.957z"/>
		<path d="M193.824,213.27c0.486,0.361,1.026,0.596,1.81,0.596c0.784,0,1.171-0.307,1.171-0.686c0-0.342-0.352-0.584-1.423-0.846
			c-0.9-0.225-1.665-0.621-1.665-1.242c0-0.703,0.63-1.242,1.836-1.242c0.657,0,1.324,0.26,1.756,0.559l-0.36,0.477
			c-0.387-0.27-0.854-0.459-1.396-0.459c-0.818,0-1.08,0.287-1.08,0.629c0,0.361,0.54,0.576,1.333,0.775
			c1.179,0.297,1.746,0.639,1.746,1.305c0,0.711-0.693,1.307-1.944,1.307c-0.855,0-1.611-0.316-2.143-0.686L193.824,213.27z"/>
		<path d="M200.917,209.85c1.152,0,2.16,0.836,2.16,2.305c0,1.449-1.008,2.287-2.16,2.287s-2.161-0.838-2.161-2.287
			C198.755,210.686,199.764,209.85,200.917,209.85z M200.917,213.828c0.837,0,1.396-0.676,1.396-1.674
			c0-1.008-0.559-1.693-1.396-1.693c-0.838,0-1.396,0.686-1.396,1.693C199.521,213.152,200.079,213.828,200.917,213.828z"/>
		<path d="M204.345,207.922h2.232v4.998c0,0.639,0.333,0.908,0.855,0.908c0.252,0,0.504-0.062,0.828-0.207l0.188,0.559
			c-0.396,0.145-0.702,0.262-1.179,0.262c-0.928,0-1.432-0.541-1.432-1.576v-4.34h-1.494V207.922z"/>
		<path d="M211.86,209.85c1.252,0,1.989,0.818,1.989,2.053c0,0.152-0.009,0.314-0.026,0.422h-3.421
			c0.036,0.928,0.72,1.521,1.674,1.521c0.514,0,0.928-0.152,1.333-0.404l0.261,0.486c-0.432,0.279-0.981,0.514-1.684,0.514
			c-1.296,0-2.35-0.855-2.35-2.287S210.726,209.85,211.86,209.85z M213.166,211.793c0-0.873-0.486-1.359-1.297-1.359
			c-0.711,0-1.359,0.506-1.477,1.359H213.166z"/>
		<path d="M217.117,212.92c0.404,0,0.729,0.305,0.729,0.764c0,0.451-0.324,0.758-0.729,0.758c-0.405,0-0.729-0.307-0.729-0.758
			C216.387,213.225,216.711,212.92,217.117,212.92z"/>
		<path d="M220.544,207.922h2.232v4.998c0,0.639,0.333,0.908,0.855,0.908c0.252,0,0.504-0.062,0.828-0.207l0.188,0.559
			c-0.396,0.145-0.702,0.262-1.179,0.262c-0.928,0-1.432-0.541-1.432-1.576v-4.34h-1.494V207.922z"/>
		<path d="M227.917,209.85c1.152,0,2.16,0.836,2.16,2.305c0,1.449-1.008,2.287-2.16,2.287s-2.161-0.838-2.161-2.287
			C225.755,210.686,226.764,209.85,227.917,209.85z M227.917,213.828c0.837,0,1.396-0.676,1.396-1.674
			c0-1.008-0.559-1.693-1.396-1.693c-0.838,0-1.396,0.686-1.396,1.693C226.521,213.152,227.079,213.828,227.917,213.828z"/>
		<path d="M231.983,214.162v-0.037c-0.233-0.125-0.45-0.352-0.45-0.721c0-0.277,0.189-0.594,0.522-0.818v-0.035
			c-0.297-0.227-0.54-0.613-0.54-1.135c0-0.955,0.792-1.566,1.72-1.566c0.252,0,0.459,0.035,0.647,0.107h1.81v0.566h-1.17
			c0.207,0.217,0.405,0.531,0.405,0.92c0,0.936-0.747,1.502-1.692,1.502c-0.226,0-0.495-0.053-0.738-0.162
			c-0.217,0.137-0.343,0.299-0.343,0.506c0,0.35,0.334,0.504,0.91,0.504h0.98c1.126,0,1.666,0.287,1.666,1.025
			c0,0.82-0.945,1.531-2.431,1.531c-1.278,0-2.017-0.441-2.017-1.217C231.263,214.783,231.515,214.432,231.983,214.162z
			 M233.333,215.836c1.018,0,1.647-0.449,1.647-0.9c0-0.414-0.333-0.531-0.999-0.531h-0.855c-0.252,0-0.478-0.018-0.666-0.072
			c-0.414,0.225-0.559,0.479-0.559,0.73C231.902,215.521,232.397,215.836,233.333,215.836z M234.243,211.416
			c0-0.613-0.45-1.027-1.008-1.027c-0.55,0-1.009,0.414-1.009,1.027c0,0.629,0.459,1.035,1.009,1.035
			C233.792,212.451,234.243,212.045,234.243,211.416z"/>
		<path d="M237.888,211.83c0-1.738,0.773-3.115,2.025-4.088l0.405,0.379c-1.207,1.018-1.765,2.195-1.765,3.709
			c0,1.512,0.558,2.691,1.765,3.709l-0.405,0.379C238.662,214.945,237.888,213.566,237.888,211.83z"/>
		<path d="M242.603,209.139l-0.019-0.99h0.991l-0.01,0.99l-0.233,2.025h-0.505L242.603,209.139z M244.665,209.139l-0.009-0.99h0.99
			l-0.019,0.99l-0.225,2.025h-0.504L244.665,209.139z"/>
		<path d="M247.517,214.332v-6.004h2.674c1.044,0,1.684,0.629,1.684,1.529c0,0.758-0.504,1.262-1.054,1.379
			c0.64,0.098,1.171,0.756,1.171,1.477c0,0.963-0.64,1.619-1.737,1.619H247.517z M251.1,209.967c0-0.541-0.36-0.973-1.035-0.973
			h-1.801v1.936h1.801C250.74,210.93,251.1,210.516,251.1,209.967z M251.217,212.631c0-0.549-0.378-1.035-1.116-1.035h-1.837v2.07
			h1.837C250.803,213.666,251.217,213.27,251.217,212.631z"/>
		<path d="M252.899,212.154c0-1.262,0.828-2.277,2.152-2.277c1.323,0,2.151,1.016,2.151,2.277c0,1.26-0.828,2.287-2.151,2.287
			C253.727,214.441,252.899,213.414,252.899,212.154z M256.492,212.154c0-0.883-0.514-1.676-1.44-1.676
			c-0.928,0-1.45,0.793-1.45,1.676c0,0.891,0.522,1.684,1.45,1.684C255.978,213.838,256.492,213.045,256.492,212.154z"/>
		<path d="M261.234,214.332v-2.844c0-0.766-0.388-1.01-0.973-1.01c-0.531,0-1.035,0.324-1.287,0.676v3.178h-0.676v-4.348h0.676
			v0.631c0.306-0.361,0.9-0.738,1.548-0.738c0.91,0,1.387,0.459,1.387,1.404v3.051H261.234z"/>
		<path d="M261.691,215.773l0.243-0.514c0.153,0.152,0.352,0.279,0.621,0.279c0.405,0,0.702-0.234,0.702-0.783v-4.771h0.676v4.771
			c0,0.855-0.459,1.342-1.287,1.342C262.205,216.098,261.97,215.988,261.691,215.773z M263.141,208.912
			c0-0.252,0.207-0.459,0.45-0.459c0.252,0,0.459,0.207,0.459,0.459s-0.207,0.451-0.459,0.451
			C263.348,209.363,263.141,209.164,263.141,208.912z"/>
		<path d="M265.03,212.154c0-1.262,0.828-2.277,2.152-2.277c1.323,0,2.151,1.016,2.151,2.277c0,1.26-0.828,2.287-2.151,2.287
			C265.858,214.441,265.03,213.414,265.03,212.154z M268.623,212.154c0-0.883-0.514-1.676-1.44-1.676
			c-0.928,0-1.45,0.793-1.45,1.676c0,0.891,0.522,1.684,1.45,1.684C268.109,213.838,268.623,213.045,268.623,212.154z"/>
		<path d="M273.366,214.332v-0.611c-0.333,0.377-0.9,0.721-1.549,0.721c-0.909,0-1.387-0.441-1.387-1.387v-3.07h0.676v2.863
			c0,0.766,0.387,0.99,0.972,0.99c0.531,0,1.036-0.307,1.288-0.658v-3.195h0.675v4.348H273.366z"/>
		<path d="M275.389,214.332v-4.348h0.676v0.701c0.351-0.459,0.855-0.791,1.449-0.791v0.693c-0.081-0.018-0.162-0.027-0.271-0.027
			c-0.414,0-0.98,0.342-1.179,0.693v3.078H275.389z"/>
		<path d="M277.784,215.477l-0.334-0.279c0.288-0.189,0.55-0.541,0.586-0.838c-0.019,0.01-0.081,0.018-0.126,0.018
			c-0.252,0-0.433-0.188-0.433-0.459c0-0.26,0.207-0.486,0.478-0.486c0.297,0,0.566,0.252,0.566,0.686
			C278.521,214.666,278.198,215.18,277.784,215.477z"/>
		<path d="M282.032,214.332v-6.004h3.935v0.666h-3.188v1.936h3.124v0.666h-3.124v2.07h3.188v0.666H282.032z"/>
		<path d="M287.26,213.424v-2.846h-0.721v-0.594h0.721v-1.189h0.675v1.189h0.883v0.594h-0.883v2.701
			c0,0.324,0.145,0.559,0.441,0.559c0.188,0,0.369-0.082,0.459-0.18l0.198,0.504c-0.171,0.162-0.414,0.279-0.811,0.279
			C287.584,214.441,287.26,214.072,287.26,213.424z"/>
		<path d="M289.654,208.912c0-0.252,0.207-0.459,0.451-0.459c0.252,0,0.459,0.207,0.459,0.459s-0.207,0.451-0.459,0.451
			C289.861,209.363,289.654,209.164,289.654,208.912z M289.771,214.332v-4.348h0.676v4.348H289.771z"/>
		<path d="M291.543,212.154c0-1.262,0.9-2.277,2.143-2.277c1.314,0,2.09,1.025,2.09,2.33v0.172h-3.52
			c0.053,0.818,0.629,1.504,1.566,1.504c0.494,0,0.998-0.199,1.34-0.549l0.324,0.439c-0.432,0.434-1.018,0.668-1.729,0.668
			C292.471,214.441,291.543,213.514,291.543,212.154z M293.678,210.434c-0.928,0-1.387,0.783-1.422,1.451h2.854
			C295.1,211.236,294.668,210.434,293.678,210.434z"/>
		<path d="M299.799,214.332v-2.844c0-0.766-0.389-1.01-0.973-1.01c-0.531,0-1.035,0.324-1.287,0.676v3.178h-0.676v-4.348h0.676
			v0.631c0.305-0.361,0.9-0.738,1.547-0.738c0.91,0,1.387,0.459,1.387,1.404v3.051H299.799z"/>
		<path d="M304.758,214.332v-2.844c0-0.766-0.389-1.01-0.973-1.01c-0.531,0-1.035,0.324-1.287,0.676v3.178h-0.676v-4.348h0.676
			v0.631c0.305-0.361,0.9-0.738,1.547-0.738c0.91,0,1.387,0.459,1.387,1.404v3.051H304.758z"/>
		<path d="M306.529,212.154c0-1.262,0.9-2.277,2.143-2.277c1.314,0,2.088,1.025,2.088,2.33v0.172h-3.52
			c0.055,0.818,0.631,1.504,1.566,1.504c0.496,0,1-0.199,1.342-0.549l0.324,0.439c-0.432,0.434-1.018,0.668-1.729,0.668
			C307.457,214.441,306.529,213.514,306.529,212.154z M308.662,210.434c-0.926,0-1.387,0.783-1.422,1.451h2.854
			C310.086,211.236,309.652,210.434,308.662,210.434z"/>
		<path d="M311.713,213.928c0-0.27,0.225-0.496,0.494-0.496c0.271,0,0.496,0.227,0.496,0.496c0,0.262-0.225,0.494-0.496,0.494
			C311.938,214.422,311.713,214.189,311.713,213.928z M311.928,212.648l-0.143-4.32h0.846l-0.145,4.32H311.928z"/>
		<path d="M314.432,209.139l-0.02-0.99h0.992l-0.01,0.99l-0.234,2.025h-0.504L314.432,209.139z M316.492,209.139l-0.008-0.99h0.99
			l-0.02,0.99l-0.225,2.025h-0.504L316.492,209.139z"/>
		<path d="M319.74,215.539c1.207-1.018,1.766-2.197,1.766-3.709c0-1.514-0.559-2.691-1.766-3.709l0.406-0.379
			c1.25,0.973,2.025,2.35,2.025,4.088c0,1.736-0.775,3.115-2.025,4.088L319.74,215.539z"/>
		<path d="M324.889,215.457l-0.334-0.27c0.289-0.189,0.551-0.549,0.586-0.846c-0.018,0.008-0.08,0.027-0.125,0.027
			c-0.252,0-0.434-0.199-0.434-0.459c0-0.271,0.207-0.496,0.479-0.496c0.297,0,0.566,0.252,0.566,0.684
			C325.627,214.656,325.303,215.17,324.889,215.457z M324.582,210.416c0-0.27,0.227-0.494,0.496-0.494s0.494,0.225,0.494,0.494
			c0,0.262-0.225,0.496-0.494,0.496S324.582,210.678,324.582,210.416z"/>
	</g>
	<g>
		<path d="M162.493,17.012c0.553,0,0.959,0.224,1.24,0.497l-0.288,0.371c-0.28-0.245-0.574-0.392-0.931-0.392
			c-0.785,0-1.324,0.532-1.324,1.317c0,0.777,0.525,1.303,1.31,1.303c0.42,0,0.771-0.189,1.058-0.427l0.252,0.371
			c-0.371,0.336-0.847,0.532-1.352,0.532c-1.064,0-1.863-0.651-1.863-1.779C160.595,17.664,161.463,17.012,162.493,17.012z"/>
		<path d="M166.335,17.012c0.896,0,1.681,0.651,1.681,1.793c0,1.127-0.785,1.779-1.681,1.779s-1.681-0.651-1.681-1.779
			C164.654,17.664,165.438,17.012,166.335,17.012z M166.335,20.108c0.651,0,1.085-0.525,1.085-1.303
			c0-0.785-0.434-1.317-1.085-1.317s-1.085,0.532-1.085,1.317C165.25,19.583,165.684,20.108,166.335,20.108z"/>
		<path d="M171.971,20.5h-0.469l-0.049-0.595h-0.028c-0.343,0.399-0.743,0.679-1.268,0.679c-0.812,0-1.184-0.476-1.184-1.373v-2.115
			h0.582v2.038c0,0.645,0.217,0.953,0.784,0.953c0.393,0,0.68-0.189,1.058-0.63v-2.36h0.575V20.5z"/>
		<path d="M173.285,17.096h0.476l0.049,0.581h0.028c0.357-0.378,0.75-0.665,1.282-0.665c0.806,0,1.177,0.476,1.177,1.373V20.5
			h-0.574v-2.038c0-0.645-0.224-0.953-0.785-0.953c-0.406,0-0.679,0.203-1.079,0.616V20.5h-0.574V17.096z"/>
		<path d="M178.277,17.565h-0.959v-0.434l0.98-0.035l0.077-0.953h0.476v0.953h1.674v0.469h-1.674v1.618
			c0,0.609,0.203,0.932,0.861,0.932c0.322,0,0.582-0.063,0.82-0.154l0.126,0.42c-0.308,0.112-0.701,0.203-1.072,0.203
			c-0.987,0-1.31-0.567-1.31-1.408V17.565z"/>
		<path d="M182.056,17.096h0.477l0.049,0.805h0.021c0.357-0.546,0.89-0.889,1.52-0.889c0.252,0,0.462,0.035,0.672,0.14l-0.133,0.497
			c-0.238-0.084-0.364-0.119-0.63-0.119c-0.511,0-0.995,0.266-1.401,0.974V20.5h-0.574V17.096z"/>
		<path d="M186.13,21.487c0.476,0,0.763-0.308,0.932-0.728l0.105-0.252l-1.59-3.411h0.581l0.833,1.884
			c0.133,0.301,0.28,0.659,0.42,0.988h0.028c0.119-0.322,0.252-0.679,0.364-0.988l0.743-1.884h0.546l-1.499,3.684
			c-0.252,0.672-0.672,1.184-1.443,1.184c-0.161,0-0.329-0.028-0.448-0.07l0.119-0.455C185.913,21.466,186.025,21.487,186.13,21.487
			z"/>
		<path d="M191.948,15.821c0.554,0,0.988,0.266,1.254,0.561l-0.329,0.371c-0.238-0.252-0.54-0.42-0.925-0.42
			c-0.882,0-1.45,0.715-1.45,1.856c0,1.155,0.567,1.884,1.45,1.884c0.42,0,0.736-0.182,1.03-0.511l0.336,0.357
			c-0.364,0.42-0.812,0.666-1.4,0.666c-1.156,0-2.017-0.882-2.017-2.381C189.896,16.725,190.75,15.821,191.948,15.821z"/>
		<path d="M195.735,17.012c0.896,0,1.681,0.651,1.681,1.793c0,1.127-0.785,1.779-1.681,1.779s-1.681-0.651-1.681-1.779
			C194.054,17.664,194.838,17.012,195.735,17.012z M195.735,20.108c0.651,0,1.085-0.525,1.085-1.303
			c0-0.785-0.434-1.317-1.085-1.317s-1.085,0.532-1.085,1.317C194.649,19.583,195.083,20.108,195.735,20.108z"/>
		<path d="M199.802,17.012c0.413,0,0.714,0.168,1.029,0.441l-0.021-0.63v-1.31h0.574V20.5h-0.476l-0.049-0.448h-0.021
			c-0.28,0.287-0.686,0.532-1.106,0.532c-0.89,0-1.478-0.645-1.478-1.779C198.254,17.698,198.996,17.012,199.802,17.012z
			 M199.851,20.101c0.336,0,0.658-0.175,0.959-0.511v-1.695c-0.308-0.287-0.602-0.399-0.896-0.399c-0.588,0-1.064,0.525-1.064,1.302
			C198.849,19.61,199.22,20.101,199.851,20.101z"/>
		<path d="M204.247,17.012c0.973,0,1.548,0.637,1.548,1.597c0,0.119-0.007,0.245-0.021,0.329h-2.662
			c0.028,0.722,0.56,1.184,1.303,1.184c0.399,0,0.721-0.119,1.037-0.315l0.203,0.378c-0.336,0.217-0.764,0.399-1.31,0.399
			c-1.008,0-1.828-0.666-1.828-1.779C202.517,17.691,203.364,17.012,204.247,17.012z M205.262,18.525
			c0-0.679-0.378-1.058-1.008-1.058c-0.553,0-1.058,0.392-1.148,1.058H205.262z"/>
	</g>
	<g>
		<path d="M262.401,17.096h0.476l0.049,0.581h0.028c0.357-0.378,0.75-0.665,1.282-0.665c0.806,0,1.177,0.476,1.177,1.373V20.5
			h-0.574v-2.038c0-0.645-0.224-0.953-0.785-0.953c-0.406,0-0.679,0.203-1.079,0.616V20.5h-0.574V17.096z"/>
		<path d="M268.982,18.343c-0.014-0.462-0.245-0.854-0.903-0.854c-0.441,0-0.875,0.21-1.191,0.406l-0.224-0.392
			c0.343-0.224,0.917-0.49,1.513-0.49c0.932,0,1.38,0.553,1.38,1.401V20.5h-0.469l-0.049-0.462h-0.021
			c-0.378,0.294-0.862,0.546-1.345,0.546c-0.638,0-1.156-0.357-1.156-0.966C266.517,18.854,267.225,18.483,268.982,18.343z
			 M267.827,20.122c0.385,0,0.771-0.182,1.156-0.504v-0.896c-1.457,0.119-1.905,0.406-1.905,0.854
			C267.077,19.961,267.435,20.122,267.827,20.122z"/>
		<path d="M270.57,17.096h0.448l0.049,0.448h0.021c0.168-0.315,0.378-0.532,0.764-0.532c0.343,0,0.56,0.196,0.644,0.588
			c0.203-0.357,0.427-0.588,0.806-0.588c0.469,0,0.742,0.371,0.742,1.05V20.5h-0.553v-2.388c0-0.399-0.119-0.603-0.371-0.603
			c-0.245,0-0.406,0.175-0.582,0.525V20.5h-0.462v-2.388c0-0.399-0.133-0.603-0.385-0.603c-0.238,0-0.393,0.175-0.567,0.525V20.5
			h-0.553V17.096z"/>
		<path d="M276.563,17.012c0.973,0,1.548,0.637,1.548,1.597c0,0.119-0.007,0.245-0.021,0.329h-2.662
			c0.028,0.722,0.56,1.184,1.303,1.184c0.399,0,0.721-0.119,1.037-0.315l0.203,0.378c-0.336,0.217-0.764,0.399-1.31,0.399
			c-1.008,0-1.828-0.666-1.828-1.779C274.833,17.691,275.68,17.012,276.563,17.012z M277.578,18.525
			c0-0.679-0.378-1.058-1.008-1.058c-0.553,0-1.058,0.392-1.148,1.058H277.578z"/>
	</g>
	<g>
		<path d="M121.564,101.2v-0.028c-0.182-0.098-0.35-0.273-0.35-0.56c0-0.217,0.147-0.462,0.406-0.638v-0.028
			c-0.231-0.175-0.42-0.476-0.42-0.882c0-0.743,0.617-1.219,1.338-1.219c0.196,0,0.357,0.028,0.504,0.084h1.408v0.441h-0.911
			c0.161,0.168,0.315,0.413,0.315,0.714c0,0.728-0.582,1.169-1.317,1.169c-0.175,0-0.385-0.042-0.574-0.126
			c-0.168,0.105-0.266,0.231-0.266,0.392c0,0.273,0.259,0.392,0.708,0.392h0.763c0.875,0,1.296,0.224,1.296,0.799
			c0,0.637-0.736,1.19-1.891,1.19c-0.995,0-1.569-0.343-1.569-0.945C121.004,101.683,121.2,101.41,121.564,101.2z M122.615,102.502
			c0.792,0,1.282-0.35,1.282-0.7c0-0.322-0.259-0.413-0.777-0.413h-0.666c-0.196,0-0.371-0.014-0.519-0.056
			c-0.322,0.175-0.434,0.371-0.434,0.567C121.501,102.257,121.887,102.502,122.615,102.502z M123.323,99.064
			c0-0.477-0.351-0.799-0.785-0.799c-0.427,0-0.784,0.322-0.784,0.799c0,0.49,0.357,0.805,0.784,0.805
			C122.972,99.869,123.323,99.554,123.323,99.064z"/>
		<path d="M125.722,97.929h0.477l0.049,0.805h0.021c0.357-0.546,0.89-0.889,1.52-0.889c0.252,0,0.462,0.035,0.672,0.14l-0.133,0.497
			c-0.238-0.084-0.364-0.119-0.63-0.119c-0.511,0-0.995,0.266-1.401,0.974v1.996h-0.574V97.929z"/>
		<path d="M131.113,97.845c0.973,0,1.548,0.637,1.548,1.597c0,0.119-0.007,0.245-0.021,0.329h-2.662
			c0.028,0.722,0.56,1.184,1.303,1.184c0.399,0,0.721-0.119,1.037-0.315l0.203,0.378c-0.336,0.217-0.764,0.399-1.31,0.399
			c-1.008,0-1.828-0.666-1.828-1.779C129.383,98.524,130.23,97.845,131.113,97.845z M132.128,99.358
			c0-0.679-0.378-1.058-1.008-1.058c-0.553,0-1.058,0.392-1.148,1.058H132.128z"/>
		<path d="M135.313,97.845c0.973,0,1.548,0.637,1.548,1.597c0,0.119-0.007,0.245-0.021,0.329h-2.662
			c0.028,0.722,0.56,1.184,1.303,1.184c0.399,0,0.721-0.119,1.037-0.315l0.203,0.378c-0.336,0.217-0.764,0.399-1.31,0.399
			c-1.008,0-1.828-0.666-1.828-1.779C133.583,98.524,134.43,97.845,135.313,97.845z M136.328,99.358
			c0-0.679-0.378-1.058-1.008-1.058c-0.553,0-1.058,0.392-1.148,1.058H136.328z"/>
		<path d="M138.743,98.398h-0.959v-0.434l0.98-0.035l0.077-0.953h0.476v0.953h1.674v0.469h-1.674v1.618
			c0,0.609,0.203,0.932,0.861,0.932c0.322,0,0.582-0.063,0.82-0.154l0.126,0.42c-0.308,0.112-0.701,0.203-1.072,0.203
			c-0.987,0-1.31-0.567-1.31-1.408V98.398z"/>
		<path d="M142.13,97.929h2.157v3.404h-0.574v-2.935h-1.583V97.929z M143.475,96.788c0-0.273,0.196-0.448,0.462-0.448
			c0.259,0,0.462,0.175,0.462,0.448c0,0.266-0.203,0.441-0.462,0.441C143.671,97.229,143.475,97.054,143.475,96.788z"/>
		<path d="M146.351,97.929h0.476l0.049,0.581h0.028c0.357-0.378,0.75-0.665,1.282-0.665c0.806,0,1.177,0.476,1.177,1.373v2.115
			h-0.574v-2.038c0-0.645-0.224-0.953-0.785-0.953c-0.406,0-0.679,0.203-1.079,0.616v2.375h-0.574V97.929z"/>
		<path d="M150.964,101.2v-0.028c-0.182-0.098-0.35-0.273-0.35-0.56c0-0.217,0.147-0.462,0.406-0.638v-0.028
			c-0.231-0.175-0.42-0.476-0.42-0.882c0-0.743,0.617-1.219,1.338-1.219c0.196,0,0.357,0.028,0.504,0.084h1.408v0.441h-0.911
			c0.161,0.168,0.315,0.413,0.315,0.714c0,0.728-0.582,1.169-1.317,1.169c-0.175,0-0.385-0.042-0.574-0.126
			c-0.168,0.105-0.266,0.231-0.266,0.392c0,0.273,0.259,0.392,0.708,0.392h0.763c0.875,0,1.296,0.224,1.296,0.799
			c0,0.637-0.736,1.19-1.891,1.19c-0.995,0-1.569-0.343-1.569-0.945C150.404,101.683,150.6,101.41,150.964,101.2z M152.015,102.502
			c0.792,0,1.282-0.35,1.282-0.7c0-0.322-0.259-0.413-0.777-0.413h-0.666c-0.196,0-0.371-0.014-0.519-0.056
			c-0.322,0.175-0.434,0.371-0.434,0.567C150.901,102.257,151.286,102.502,152.015,102.502z M152.722,99.064
			c0-0.477-0.351-0.799-0.785-0.799c-0.427,0-0.784,0.322-0.784,0.799c0,0.49,0.357,0.805,0.784,0.805
			C152.372,99.869,152.722,99.554,152.722,99.064z"/>
	</g>
	<g>
		<path d="M298.17,150.096h0.448l0.05,0.448h0.021c0.168-0.315,0.378-0.532,0.764-0.532c0.343,0,0.561,0.196,0.645,0.588
			c0.203-0.357,0.427-0.588,0.805-0.588c0.47,0,0.743,0.371,0.743,1.05v2.438h-0.554v-2.388c0-0.399-0.119-0.603-0.371-0.603
			c-0.245,0-0.406,0.175-0.581,0.525v2.465h-0.463v-2.388c0-0.399-0.133-0.603-0.385-0.603c-0.238,0-0.393,0.175-0.567,0.525v2.465
			h-0.554V150.096z"/>
		<path d="M304.163,150.012c0.974,0,1.548,0.637,1.548,1.597c0,0.119-0.007,0.245-0.021,0.329h-2.662
			c0.028,0.722,0.561,1.184,1.303,1.184c0.399,0,0.722-0.119,1.037-0.315l0.203,0.378c-0.336,0.217-0.764,0.399-1.31,0.399
			c-1.009,0-1.828-0.666-1.828-1.779C302.434,150.691,303.281,150.012,304.163,150.012z M305.179,151.525
			c0-0.679-0.378-1.058-1.009-1.058c-0.553,0-1.057,0.392-1.148,1.058H305.179z"/>
		<path d="M306.934,152.673c0.379,0.28,0.799,0.462,1.408,0.462s0.91-0.238,0.91-0.532c0-0.266-0.273-0.455-1.106-0.658
			c-0.7-0.175-1.296-0.483-1.296-0.967c0-0.546,0.49-0.966,1.429-0.966c0.512,0,1.03,0.203,1.366,0.434l-0.28,0.371
			c-0.302-0.21-0.665-0.357-1.086-0.357c-0.637,0-0.84,0.224-0.84,0.49c0,0.28,0.42,0.448,1.036,0.602
			c0.918,0.231,1.358,0.498,1.358,1.016c0,0.553-0.539,1.016-1.513,1.016c-0.665,0-1.253-0.245-1.667-0.532L306.934,152.673z"/>
		<path d="M311.134,152.673c0.379,0.28,0.799,0.462,1.408,0.462s0.91-0.238,0.91-0.532c0-0.266-0.273-0.455-1.106-0.658
			c-0.7-0.175-1.296-0.483-1.296-0.967c0-0.546,0.49-0.966,1.429-0.966c0.512,0,1.03,0.203,1.366,0.434l-0.28,0.371
			c-0.301-0.21-0.665-0.357-1.086-0.357c-0.637,0-0.84,0.224-0.84,0.49c0,0.28,0.42,0.448,1.036,0.602
			c0.918,0.231,1.358,0.498,1.358,1.016c0,0.553-0.539,1.016-1.513,1.016c-0.665,0-1.253-0.245-1.667-0.532L311.134,152.673z"/>
		<path d="M317.582,151.343c-0.014-0.462-0.245-0.854-0.903-0.854c-0.441,0-0.875,0.21-1.19,0.406l-0.224-0.392
			c0.343-0.224,0.917-0.49,1.513-0.49c0.932,0,1.38,0.553,1.38,1.401v2.087h-0.47l-0.049-0.462h-0.021
			c-0.378,0.294-0.861,0.546-1.345,0.546c-0.637,0-1.155-0.357-1.155-0.966C315.117,151.854,315.824,151.483,317.582,151.343z
			 M316.427,153.122c0.386,0,0.771-0.182,1.155-0.504v-0.896c-1.456,0.119-1.904,0.406-1.904,0.854
			C315.678,152.961,316.034,153.122,316.427,153.122z"/>
		<path d="M319.814,153.367v-0.028c-0.182-0.098-0.35-0.273-0.35-0.56c0-0.217,0.146-0.462,0.406-0.638v-0.028
			c-0.231-0.175-0.421-0.476-0.421-0.882c0-0.743,0.616-1.219,1.338-1.219c0.196,0,0.357,0.028,0.504,0.084h1.408v0.441h-0.91
			c0.161,0.168,0.314,0.413,0.314,0.714c0,0.728-0.581,1.169-1.316,1.169c-0.175,0-0.385-0.042-0.574-0.126
			c-0.168,0.105-0.267,0.231-0.267,0.392c0,0.273,0.26,0.392,0.708,0.392h0.763c0.876,0,1.296,0.224,1.296,0.799
			c0,0.637-0.735,1.19-1.891,1.19c-0.995,0-1.569-0.343-1.569-0.945C319.254,153.85,319.45,153.577,319.814,153.367z
			 M320.865,154.669c0.791,0,1.281-0.35,1.281-0.7c0-0.322-0.259-0.413-0.777-0.413h-0.665c-0.196,0-0.371-0.014-0.519-0.056
			c-0.322,0.175-0.434,0.371-0.434,0.567C319.752,154.424,320.137,154.669,320.865,154.669z M321.572,151.231
			c0-0.477-0.35-0.799-0.784-0.799c-0.427,0-0.784,0.322-0.784,0.799c0,0.49,0.357,0.805,0.784,0.805
			C321.223,152.036,321.572,151.721,321.572,151.231z"/>
		<path d="M325.162,150.012c0.974,0,1.548,0.637,1.548,1.597c0,0.119-0.007,0.245-0.021,0.329h-2.662
			c0.028,0.722,0.561,1.184,1.303,1.184c0.399,0,0.722-0.119,1.037-0.315l0.203,0.378c-0.336,0.217-0.764,0.399-1.31,0.399
			c-1.009,0-1.828-0.666-1.828-1.779C323.433,150.691,324.28,150.012,325.162,150.012z M326.178,151.525
			c0-0.679-0.378-1.058-1.009-1.058c-0.553,0-1.057,0.392-1.148,1.058H326.178z"/>
	</g>
	<g>
		<path d="M28.31,41.676l-0.885-2.22h-4.979l-0.886,2.22h-1.425l4.021-10.004H25.7l4.034,10.004H28.31z M24.935,32.961l-2.13,5.385
			h4.245L24.935,32.961z"/>
		<path d="M31.055,40.161v-4.74h-1.199v-0.99h1.199v-1.98h1.125v1.98h1.471v0.99H32.18v4.5c0,0.54,0.24,0.93,0.735,0.93
			c0.314,0,0.615-0.135,0.765-0.3l0.33,0.84c-0.285,0.27-0.689,0.465-1.35,0.465C31.595,41.856,31.055,41.241,31.055,40.161z"/>
		<path d="M34.82,38.046c0-2.1,1.38-3.795,3.585-3.795s3.585,1.695,3.585,3.795s-1.38,3.81-3.585,3.81S34.82,40.146,34.82,38.046z
			 M40.805,38.046c0-1.47-0.854-2.79-2.399-2.79s-2.415,1.32-2.415,2.79c0,1.485,0.87,2.805,2.415,2.805
			S40.805,39.531,40.805,38.046z"/>
		<path d="M52.563,41.676v-4.92c0-0.915-0.404-1.5-1.335-1.5c-0.749,0-1.545,0.54-1.92,1.11v5.31h-1.124v-4.92
			c0-0.915-0.391-1.5-1.335-1.5c-0.735,0-1.516,0.54-1.905,1.125v5.295h-1.125v-7.245h1.125v1.05c0.3-0.465,1.274-1.23,2.34-1.23
			c1.11,0,1.74,0.6,1.95,1.35c0.404-0.66,1.38-1.35,2.43-1.35c1.32,0,2.024,0.735,2.024,2.19v5.235H52.563z"/>
		<path d="M55.31,40.716l0.585-0.81c0.479,0.555,1.395,1.035,2.385,1.035c1.11,0,1.71-0.525,1.71-1.245
			c0-1.755-4.484-0.675-4.484-3.36c0-1.125,0.975-2.085,2.699-2.085c1.23,0,2.101,0.465,2.686,1.05l-0.525,0.78
			c-0.435-0.525-1.23-0.915-2.16-0.915c-0.99,0-1.604,0.495-1.604,1.14c0,1.59,4.484,0.54,4.484,3.36c0,1.215-0.975,2.19-2.85,2.19
			C57.05,41.856,56.044,41.496,55.31,40.716z"/>
	</g>
	<g>
		<path d="M21.17,130.5v-10.004h3.42c3.105,0,5.13,2.175,5.13,5.01c0,2.85-2.025,4.995-5.13,4.995H21.17z M28.43,125.505
			c0-2.16-1.365-3.9-3.84-3.9h-2.175v7.785h2.175C27.02,129.39,28.43,127.65,28.43,125.505z"/>
		<path d="M31.205,126.87c0-2.1,1.5-3.795,3.57-3.795c2.19,0,3.48,1.71,3.48,3.885v0.285H32.39c0.09,1.365,1.05,2.505,2.61,2.505
			c0.825,0,1.665-0.33,2.235-0.915l0.54,0.735c-0.72,0.72-1.695,1.11-2.88,1.11C32.75,130.68,31.205,129.135,31.205,126.87z
			 M34.76,124.005c-1.545,0-2.31,1.305-2.37,2.415h4.754C37.13,125.34,36.41,124.005,34.76,124.005z"/>
		<path d="M40.07,130.5v-7.245h1.125v1.17c0.585-0.765,1.425-1.32,2.415-1.32v1.155c-0.135-0.03-0.27-0.045-0.45-0.045
			c-0.69,0-1.635,0.57-1.965,1.155v5.13H40.07z"/>
		<path d="M44.825,121.47c0-0.42,0.345-0.765,0.75-0.765c0.42,0,0.765,0.345,0.765,0.765s-0.345,0.75-0.765,0.75
			C45.169,122.22,44.825,121.89,44.825,121.47z M45.02,130.5v-7.245h1.125v7.245H45.02z"/>
		<path d="M50.33,130.5l-3.015-7.245h1.215l2.415,5.939l2.4-5.939h1.23L51.56,130.5H50.33z"/>
		<path d="M60.274,130.5v-0.825c-0.6,0.66-1.425,1.005-2.4,1.005c-1.23,0-2.535-0.825-2.535-2.4c0-1.62,1.305-2.385,2.535-2.385
			c0.99,0,1.815,0.315,2.4,0.99v-1.305c0-0.975-0.78-1.53-1.83-1.53c-0.87,0-1.575,0.315-2.22,1.005l-0.525-0.78
			c0.78-0.81,1.71-1.2,2.895-1.2c1.53,0,2.805,0.69,2.805,2.445v4.98H60.274z M60.274,128.97v-1.365c-0.435-0.6-1.2-0.9-1.995-0.9
			c-1.05,0-1.785,0.66-1.785,1.59c0,0.915,0.735,1.575,1.785,1.575C59.074,129.87,59.839,129.57,60.274,128.97z"/>
		<path d="M63.875,128.985v-4.74h-1.2v-0.99h1.2v-1.98H65v1.98h1.47v0.99H65v4.5c0,0.54,0.24,0.93,0.735,0.93
			c0.315,0,0.615-0.135,0.765-0.3l0.33,0.84c-0.285,0.27-0.69,0.465-1.35,0.465C64.415,130.68,63.875,130.065,63.875,128.985z"/>
		<path d="M67.864,121.47c0-0.42,0.345-0.765,0.75-0.765c0.42,0,0.765,0.345,0.765,0.765s-0.345,0.75-0.765,0.75
			C68.209,122.22,67.864,121.89,67.864,121.47z M68.059,130.5v-7.245h1.125v7.245H68.059z"/>
		<path d="M71.014,126.87c0-2.1,1.38-3.795,3.585-3.795c2.205,0,3.584,1.695,3.584,3.795s-1.38,3.81-3.584,3.81
			C72.394,130.68,71.014,128.97,71.014,126.87z M76.999,126.87c0-1.47-0.855-2.79-2.4-2.79s-2.415,1.32-2.415,2.79
			c0,1.485,0.87,2.805,2.415,2.805S76.999,128.355,76.999,126.87z"/>
		<path d="M84.903,130.5v-4.74c0-1.275-0.645-1.68-1.62-1.68c-0.885,0-1.725,0.54-2.145,1.125v5.295h-1.125v-7.245h1.125v1.05
			c0.51-0.6,1.5-1.23,2.58-1.23c1.515,0,2.31,0.765,2.31,2.34v5.085H84.903z"/>
		<path d="M87.649,129.54l0.585-0.81c0.48,0.555,1.395,1.035,2.385,1.035c1.11,0,1.71-0.525,1.71-1.245
			c0-1.755-4.485-0.675-4.485-3.36c0-1.125,0.975-2.085,2.7-2.085c1.23,0,2.1,0.465,2.685,1.05l-0.525,0.78
			c-0.435-0.525-1.23-0.915-2.16-0.915c-0.99,0-1.604,0.495-1.604,1.14c0,1.59,4.484,0.54,4.484,3.36c0,1.215-0.975,2.19-2.85,2.19
			C89.389,130.68,88.384,130.32,87.649,129.54z"/>
	</g>
	<g>
		<path d="M26.96,215.332l-2.55-3.975h-1.995v3.975H21.17v-10.004h4.02c1.83,0,3.135,1.17,3.135,3.014
			c0,1.801-1.23,2.791-2.595,2.91l2.7,4.08H26.96z M27.035,208.342c0-1.125-0.81-1.904-1.995-1.904h-2.625v3.824h2.625
			C26.225,210.262,27.035,209.467,27.035,208.342z"/>
		<path d="M29.375,211.702c0-2.101,1.5-3.795,3.57-3.795c2.19,0,3.48,1.71,3.48,3.885v0.285H30.56c0.09,1.364,1.05,2.505,2.61,2.505
			c0.825,0,1.665-0.33,2.235-0.915l0.54,0.735c-0.72,0.72-1.695,1.109-2.88,1.109C30.92,215.512,29.375,213.967,29.375,211.702z
			 M32.93,208.838c-1.545,0-2.31,1.305-2.37,2.414h4.754C35.3,210.172,34.58,208.838,32.93,208.838z"/>
		<path d="M42.77,215.332v-0.825c-0.6,0.66-1.425,1.005-2.4,1.005c-1.23,0-2.535-0.824-2.535-2.399c0-1.62,1.305-2.386,2.535-2.386
			c0.99,0,1.815,0.315,2.4,0.99v-1.305c0-0.975-0.78-1.529-1.83-1.529c-0.87,0-1.575,0.314-2.22,1.004l-0.525-0.779
			c0.78-0.811,1.71-1.2,2.895-1.2c1.53,0,2.805,0.69,2.805,2.444v4.98H42.77z M42.77,213.803v-1.365c-0.435-0.6-1.2-0.9-1.995-0.9
			c-1.05,0-1.785,0.66-1.785,1.59c0,0.915,0.735,1.575,1.785,1.575C41.569,214.702,42.334,214.402,42.77,213.803z"/>
		<path d="M45.725,211.702c0-2.146,1.455-3.795,3.615-3.795c1.32,0,2.1,0.54,2.655,1.261l-0.75,0.689
			c-0.48-0.66-1.095-0.945-1.845-0.945c-1.545,0-2.505,1.186-2.505,2.79s0.96,2.805,2.505,2.805c0.75,0,1.365-0.3,1.845-0.944
			l0.75,0.689c-0.555,0.721-1.335,1.26-2.655,1.26C47.18,215.512,45.725,213.862,45.725,211.702z"/>
		<path d="M53.794,213.816v-4.739h-1.2v-0.989h1.2v-1.98h1.125v1.98h1.47v0.989h-1.47v4.5c0,0.54,0.24,0.93,0.735,0.93
			c0.315,0,0.615-0.135,0.765-0.3l0.33,0.84c-0.285,0.27-0.69,0.465-1.35,0.465C54.334,215.512,53.794,214.896,53.794,213.816z"/>
		<path d="M57.785,206.303c0-0.42,0.345-0.766,0.75-0.766c0.42,0,0.765,0.346,0.765,0.766s-0.345,0.75-0.765,0.75
			C58.129,207.053,57.785,206.723,57.785,206.303z M57.979,215.332v-7.244h1.125v7.244H57.979z"/>
		<path d="M60.934,211.702c0-2.101,1.38-3.795,3.585-3.795c2.205,0,3.584,1.694,3.584,3.795s-1.38,3.81-3.584,3.81
			C62.314,215.512,60.934,213.803,60.934,211.702z M66.919,211.702c0-1.47-0.855-2.79-2.4-2.79s-2.415,1.32-2.415,2.79
			c0,1.485,0.87,2.805,2.415,2.805S66.919,213.188,66.919,211.702z"/>
		<path d="M74.824,215.332v-4.74c0-1.274-0.645-1.68-1.62-1.68c-0.885,0-1.725,0.54-2.145,1.125v5.295h-1.125v-7.244h1.125v1.049
			c0.51-0.6,1.5-1.229,2.58-1.229c1.515,0,2.31,0.765,2.31,2.34v5.085H74.824z"/>
		<path d="M77.569,214.372l0.585-0.81c0.48,0.555,1.395,1.035,2.385,1.035c1.11,0,1.71-0.525,1.71-1.246
			c0-1.754-4.485-0.674-4.485-3.359c0-1.125,0.975-2.085,2.7-2.085c1.23,0,2.1,0.465,2.685,1.05l-0.525,0.78
			c-0.435-0.524-1.23-0.915-2.16-0.915c-0.99,0-1.604,0.495-1.604,1.141c0,1.59,4.484,0.539,4.484,3.359
			c0,1.215-0.975,2.189-2.85,2.189C79.309,215.512,78.304,215.152,77.569,214.372z"/>
	</g>
	<g>
	</g>
	<g>
	</g>
	<g>
	</g>
	<g>
	</g>
	<g>
	</g>
	<g>
	</g>
	<g>
	</g>
</g>
</svg>
