<svg xmlns="http://www.w3.org/2000/svg" xmlns:xlink="http://www.w3.org/1999/xlink" viewBox="0 0 116.6 116.6">
  <defs>
    <linearGradient id="a" x1="311" y1="238.23" x2="372.7" y2="238.23" gradientUnits="userSpaceOnUse">
      <stop offset="0" stop-color="#fff"/>
      <stop offset="0.1" stop-color="#dee0e3"/>
      <stop offset="0.24" stop-color="#b4bac0"/>
      <stop offset="0.39" stop-color="#929aa3"/>
      <stop offset="0.53" stop-color="#77818d"/>
      <stop offset="0.68" stop-color="#64707d"/>
      <stop offset="0.84" stop-color="#596573"/>
      <stop offset="1" stop-color="#556270"/>
    </linearGradient>
    <linearGradient id="b" x1="311" y1="243.33" x2="382.77" y2="243.33" gradientUnits="userSpaceOnUse">
      <stop offset="0" stop-color="#fff"/>
      <stop offset="0.12" stop-color="#d7f4f2"/>
      <stop offset="0.25" stop-color="#ade8e4"/>
      <stop offset="0.4" stop-color="#8bded8"/>
      <stop offset="0.54" stop-color="#70d7cf"/>
      <stop offset="0.69" stop-color="#5dd1c9"/>
      <stop offset="0.84" stop-color="#52cec5"/>
      <stop offset="1" stop-color="#4ecdc4"/>
    </linearGradient>
    <linearGradient id="c" x1="311" y1="250.67" x2="387.97" y2="250.67" gradientUnits="userSpaceOnUse">
      <stop offset="0" stop-color="#fff"/>
      <stop offset="0.06" stop-color="#f8feed"/>
      <stop offset="0.21" stop-color="#e9fbc3"/>
      <stop offset="0.36" stop-color="#ddf8a1"/>
      <stop offset="0.51" stop-color="#d3f686"/>
      <stop offset="0.67" stop-color="#ccf573"/>
      <stop offset="0.82" stop-color="#c8f468"/>
      <stop offset="0.99" stop-color="#c7f464"/>
    </linearGradient>
    <linearGradient id="d" x1="311" y1="264" x2="389" y2="264" gradientUnits="userSpaceOnUse">
      <stop offset="0" stop-color="#fff"/>
      <stop offset="0.11" stop-color="#ffdae2"/>
      <stop offset="0.25" stop-color="#ffb0c1"/>
      <stop offset="0.39" stop-color="#ff8ea7"/>
      <stop offset="0.53" stop-color="#ff7392"/>
      <stop offset="0.68" stop-color="#ff6083"/>
      <stop offset="0.83" stop-color="#ff557a"/>
      <stop offset="0.99" stop-color="#ff5177"/>
    </linearGradient>
    <linearGradient id="e" y1="277.33" x2="387.97" y2="277.33" xlink:href="#c"/>
    <linearGradient id="f" y1="284.67" x2="382.77" y2="284.67" xlink:href="#b"/>
    <linearGradient id="g" y1="289.77" x2="372.7" y2="289.77" xlink:href="#a"/>
  </defs>
  <title>logo</title>
  <path d="M272.45,262h38.68l49.31-48.14A58.28,58.28,0,0,0,272.45,262Z" transform="translate(-272.4 -205.7)"/>
  <path d="M330.7,322.3a58,58,0,0,0,29.74-8.16L311.16,266h-38.7A58.47,58.47,0,0,0,330.7,322.3Z" transform="translate(-272.4 -205.7)"/>
  <path d="M389,264c0-.67,0-1.33-0.05-2H272.45c0,0.67-.05,1.33-0.05,2s0,1.33.05,2H388.95C389,265.33,389,264.67,389,264Z" transform="translate(-272.4 -205.7)" style="fill: #fff"/>
  <path d="M360.46,213.87L311,262.15v0.43l61.7-39A58.53,58.53,0,0,0,360.46,213.87Z" transform="translate(-272.4 -205.7)" style="fill: url(#a)"/>
  <path d="M372.7,223.59l-61.7,39v0.47l71.77-25.28A58.43,58.43,0,0,0,372.7,223.59Z" transform="translate(-272.4 -205.7)" style="fill: url(#b)"/>
  <path d="M382.77,237.78L311,263.06v0.5l77-10.42A57.86,57.86,0,0,0,382.77,237.78Z" transform="translate(-272.4 -205.7)" style="fill: url(#c)"/>
  <path d="M389,264a58.56,58.56,0,0,0-1-10.86l-77,10.42v0.88l77,10.42A58.56,58.56,0,0,0,389,264Z" transform="translate(-272.4 -205.7)" style="fill: url(#d)"/>
  <path d="M388,274.86l-77-10.42v0.5l71.77,25.28A57.86,57.86,0,0,0,388,274.86Z" transform="translate(-272.4 -205.7)" style="fill: url(#e)"/>
  <path d="M382.77,290.22L311,264.94v0.47l61.7,39A58.43,58.43,0,0,0,382.77,290.22Z" transform="translate(-272.4 -205.7)" style="fill: url(#f)"/>
  <path d="M372.7,304.41l-61.7-39v0.43l49.46,48.28A58.53,58.53,0,0,0,372.7,304.41Z" transform="translate(-272.4 -205.7)" style="fill: url(#g)"/>
</svg>
