<svg xmlns="http://www.w3.org/2000/svg" xmlns:xlink="http://www.w3.org/1999/xlink" viewBox="0 0 156 156"><defs><linearGradient id="a" x1="311" y1="264" x2="389" y2="264" gradientUnits="userSpaceOnUse"><stop offset="0" stop-color="#fff"/><stop offset="0.02" stop-color="#f4ffff"/><stop offset="0.14" stop-color="#bcfeff"/><stop offset="0.25" stop-color="#8afdff"/><stop offset="0.37" stop-color="#5ffcff"/><stop offset="0.49" stop-color="#3dfcff"/><stop offset="0.61" stop-color="#22fcff"/><stop offset="0.74" stop-color="#0ffbff"/><stop offset="0.87" stop-color="#04fbff"/><stop offset="1" stop-color="#00fbff"/></linearGradient><linearGradient id="b" x1="311" y1="292.42" x2="376.28" y2="292.42" gradientUnits="userSpaceOnUse"><stop offset="0" stop-color="#fff"/><stop offset="0.02" stop-color="#fef4f4"/><stop offset="0.14" stop-color="#f9bcbd"/><stop offset="0.25" stop-color="#f58a8c"/><stop offset="0.37" stop-color="#f15f63"/><stop offset="0.49" stop-color="#ee3d41"/><stop offset="0.61" stop-color="#ec2227"/><stop offset="0.74" stop-color="#ea0f15"/><stop offset="0.87" stop-color="#e9040a"/><stop offset="1" stop-color="#e90006"/></linearGradient><linearGradient id="c" x1="311" y1="285.81" x2="384.29" y2="285.81" gradientUnits="userSpaceOnUse"><stop offset="0" stop-color="#fff"/><stop offset="0.02" stop-color="#fffdf4"/><stop offset="0.14" stop-color="#fff4bc"/><stop offset="0.25" stop-color="#ffec8a"/><stop offset="0.37" stop-color="#ffe55f"/><stop offset="0.49" stop-color="#ffdf3d"/><stop offset="0.61" stop-color="#ffdb22"/><stop offset="0.74" stop-color="#ffd70f"/><stop offset="0.87" stop-color="#ffd604"/><stop offset="1" stop-color="#ffd500"/></linearGradient><linearGradient id="d" x1="311" y1="242.19" x2="384.29" y2="242.19" gradientUnits="userSpaceOnUse"><stop offset="0" stop-color="#fff"/><stop offset="0.02" stop-color="#fff4fd"/><stop offset="0.14" stop-color="#ffbcf2"/><stop offset="0.25" stop-color="#ff8ae8"/><stop offset="0.37" stop-color="#ff5fe0"/><stop offset="0.49" stop-color="#ff3dda"/><stop offset="0.61" stop-color="#ff22d5"/><stop offset="0.74" stop-color="#ff0fd1"/><stop offset="0.87" stop-color="#ff04cf"/><stop offset="1" stop-color="#ff00ce"/></linearGradient><linearGradient id="e" x1="311" y1="277.6" x2="388.23" y2="277.6" gradientUnits="userSpaceOnUse"><stop offset="0" stop-color="#fff"/><stop offset="0.02" stop-color="#f4fef4"/><stop offset="0.14" stop-color="#bcf9bc"/><stop offset="0.25" stop-color="#8af58a"/><stop offset="0.37" stop-color="#5ff161"/><stop offset="0.49" stop-color="#3dee3e"/><stop offset="0.61" stop-color="#22ec24"/><stop offset="0.74" stop-color="#0fea11"/><stop offset="0.87" stop-color="#04e906"/><stop offset="1" stop-color="#00e902"/></linearGradient><linearGradient id="f" x1="311" y1="250.4" x2="388.23" y2="250.4" gradientUnits="userSpaceOnUse"><stop offset="0" stop-color="#fff"/><stop offset="0.02" stop-color="#f4f4fe"/><stop offset="0.14" stop-color="#bdbcf9"/><stop offset="0.25" stop-color="#8b8af5"/><stop offset="0.37" stop-color="#625ff1"/><stop offset="0.49" stop-color="#403dee"/><stop offset="0.61" stop-color="#2622ec"/><stop offset="0.74" stop-color="#130fea"/><stop offset="0.87" stop-color="#0804e9"/><stop offset="1" stop-color="#0400e9"/></linearGradient><linearGradient id="g" y1="235.58" x2="376.28" y2="235.58" xlink:href="#b"/></defs><title>logo</title><path d="M365.86,319.44A78,78,0,0,1,233,266h78.13Z" transform="translate(-233 -186)"/><path d="M365.87,208.56A78,78,0,0,0,233,262h78.11Z" transform="translate(-233 -186)"/><path d="M233,262c0,1,0,1.38,0,2s0,1,0,2H389c0-1,0-1.38,0-2s0-1,0-2H233Z" transform="translate(-233 -186)" style="fill:#fff"/><path d="M311,263.56v0.88l77.23,10.46a77.09,77.09,0,0,0,0-21.79Z" transform="translate(-233 -186)" style="fill:url(#a)"/><path d="M311,265.41v0.43l54.87,53.57a78.35,78.35,0,0,0,10.41-12.75Z" transform="translate(-233 -186)" style="fill:url(#b)"/><path d="M384.29,290.76L311,264.94v0.47l65.28,41.26A77.69,77.69,0,0,0,384.29,290.76Z" transform="translate(-233 -186)" style="fill:url(#c)"/><path d="M376.28,221.33L311,262.59v0.47l73.29-25.82A77.69,77.69,0,0,0,376.28,221.33Z" transform="translate(-233 -186)" style="fill:url(#d)"/><path d="M388.23,274.89L311,264.44v0.5l73.29,25.82A77.5,77.5,0,0,0,388.23,274.89Z" transform="translate(-233 -186)" style="fill:url(#e)"/><path d="M384.29,237.24L311,263.06v0.5l77.23-10.46A77.5,77.5,0,0,0,384.29,237.24Z" transform="translate(-233 -186)" style="fill:url(#f)"/><path d="M311,262.59l65.28-41.26a78.36,78.36,0,0,0-10.41-12.75L311,262.15v0.43Z" transform="translate(-233 -186)" style="fill:url(#g)"/></svg>